<svg width="256" height="256" viewBox="0 0 256 256" fill="none" xmlns="http://www.w3.org/2000/svg">
<g clip-path="url(#clip0_11_1733)">
<path d="M196 0H60C26.8629 0 0 26.8629 0 60V196C0 229.137 26.8629 256 60 256H196C229.137 256 256 229.137 256 196V60C256 26.8629 229.137 0 196 0Z" fill="#F4F2EE"/>
<path d="M182 50H218L128 205.25L38 50H106.85L128 86L148.7 50H182Z" fill="#41B883"/>
<path d="M38 50L128 205.25L218 50H182L128 143.15L73.55 50H38Z" fill="#41B883"/>
<path d="M73.55 50L128 143.6L182 50H148.7L128 86L106.85 50H73.55Z" fill="#35495E"/>
<path d="M182.568 210.863L181.216 217.185H187.011V224.617H179.622L178.028 232H170.3L171.894 224.617H163.876L162.282 232H154.554L156.148 224.617H149V217.185H157.742L159.095 210.863H152.091V203.432H160.64L162.186 196.29H169.914L168.368 203.432H176.386L177.931 196.29H185.659L184.113 203.432H190.103V210.863H182.568ZM174.84 210.863H166.822L165.47 217.185H173.488L174.84 210.863Z" fill="#35495E"/>
<path d="M193.015 204.445V196.772H206.394V232H197.796V204.445H193.015Z" fill="#35495E"/>
<path d="M211.754 225.389C212.849 224.52 213.348 224.118 213.251 224.182C216.407 221.576 218.886 219.437 220.689 217.764C222.525 216.091 224.07 214.338 225.326 212.504C226.582 210.67 227.21 208.885 227.21 207.147C227.21 205.828 226.904 204.799 226.292 204.059C225.68 203.319 224.762 202.949 223.539 202.949C222.315 202.949 221.349 203.416 220.641 204.349C219.965 205.249 219.627 206.536 219.627 208.209H211.657C211.722 205.475 212.301 203.19 213.396 201.357C214.523 199.523 215.988 198.172 217.791 197.303C219.627 196.434 221.655 196 223.877 196C227.709 196 230.59 196.981 232.522 198.944C234.487 200.906 235.469 203.464 235.469 206.617C235.469 210.059 234.293 213.26 231.943 216.22C229.592 219.147 226.598 222.011 222.959 224.81H236V231.517H211.754V225.389Z" fill="#35495E"/>
</g>
<defs>
<clipPath id="clip0_11_1733">
<rect width="256" height="256" fill="white"/>
</clipPath>
</defs>
</svg>
