<svg width="256" height="256" viewBox="0 0 256 256" fill="none" xmlns="http://www.w3.org/2000/svg">
<g clip-path="url(#clip0_11_1715)">
<path d="M196 0H60C26.8629 0 0 26.8629 0 60V196C0 229.137 26.8629 256 60 256H196C229.137 256 256 229.137 256 196V60C256 26.8629 229.137 0 196 0Z" fill="#F4F2EE"/>
<path d="M182 50H218L128 205.25L38 50H106.85L128 86L148.7 50H182Z" fill="#41B883"/>
<path d="M38 50L128 205.25L218 50H182L128 143.15L73.55 50H38Z" fill="#41B883"/>
<path d="M73.55 50L128 143.6L182 50H148.7L128 86L106.85 50H73.55Z" fill="#35495E"/>
<path d="M182.498 210.835L181.148 217.165H186.932V224.607H179.558L177.967 232H170.256L171.846 224.607H163.845L162.255 232H154.543L156.133 224.607H149V217.165H157.724L159.074 210.835H152.085V203.393H160.616L162.158 196.242H169.87L168.328 203.393H176.329L177.871 196.242H185.583L184.04 203.393H190.017V210.835H182.498ZM174.786 210.835H166.785L165.436 217.165H173.437L174.786 210.835Z" fill="#35495E"/>
<path d="M192.923 204.408V196.725H206.274V232H197.695V204.408H192.923Z" fill="#35495E"/>
<path d="M211.912 213.879C211.912 208.338 212.973 203.973 215.093 200.784C217.246 197.595 220.701 196 225.456 196C230.212 196 233.65 197.595 235.771 200.784C237.924 203.973 239 208.338 239 213.879C239 219.485 237.924 223.882 235.771 227.071C233.65 230.26 230.212 231.855 225.456 231.855C220.701 231.855 217.246 230.26 215.093 227.071C212.973 223.882 211.912 219.485 211.912 213.879ZM230.903 213.879C230.903 210.626 230.549 208.129 229.842 206.389C229.135 204.617 227.673 203.732 225.456 203.732C223.239 203.732 221.777 204.617 221.07 206.389C220.363 208.129 220.01 210.626 220.01 213.879C220.01 216.07 220.138 217.89 220.395 219.34C220.652 220.757 221.167 221.917 221.938 222.819C222.741 223.689 223.914 224.123 225.456 224.123C226.999 224.123 228.155 223.689 228.926 222.819C229.73 221.917 230.26 220.757 230.517 219.34C230.774 217.89 230.903 216.07 230.903 213.879Z" fill="#35495E"/>
</g>
<defs>
<clipPath id="clip0_11_1715">
<rect width="256" height="256" fill="white"/>
</clipPath>
</defs>
</svg>
