<svg width="256" height="256" viewBox="0 0 256 256" fill="none" xmlns="http://www.w3.org/2000/svg">
<g clip-path="url(#clip0_11_1634)">
<path d="M196 0H60C26.8629 0 0 26.8629 0 60V196C0 229.137 26.8629 256 60 256H196C229.137 256 256 229.137 256 196V60C256 26.8629 229.137 0 196 0Z" fill="#F4F2EE"/>
<path d="M182 50H218L128 205.25L38 50H106.85L128 86L148.7 50H182Z" fill="#41B883"/>
<path d="M38 50L128 205.25L218 50H182L128 143.15L73.55 50H38Z" fill="#41B883"/>
<path d="M73.55 50L128 143.6L182 50H148.7L128 86L106.85 50H73.55Z" fill="#35495E"/>
<path d="M192.338 210.692L190.995 217.065H196.751V224.557H189.412L187.829 232H180.154L181.737 224.557H173.774L172.191 232H164.516L166.099 224.557H159V217.065H167.682L169.025 210.692H162.07V203.2H170.56L172.095 196H179.77L178.235 203.2H186.198L187.733 196H195.408L193.873 203.2H199.821V210.692H192.338ZM184.663 210.692H176.7L175.357 217.065H183.32L184.663 210.692Z" fill="#35495E"/>
<path d="M202.713 204.222V196.486H216V232H207.462V204.222H202.713Z" fill="#35495E"/>
</g>
<defs>
<clipPath id="clip0_11_1634">
<rect width="256" height="256" fill="white"/>
</clipPath>
</defs>
</svg>
