<svg width="256" height="256" viewBox="0 0 256 256" fill="none" xmlns="http://www.w3.org/2000/svg">
<g clip-path="url(#clip0_11_1688)">
<path d="M196 0H60C26.8629 0 0 26.8629 0 60V196C0 229.137 26.8629 256 60 256H196C229.137 256 256 229.137 256 196V60C256 26.8629 229.137 0 196 0Z" fill="#F4F2EE"/>
<path d="M182 50H218L128 205.25L38 50H106.85L128 86L148.7 50H182Z" fill="#41B883"/>
<path d="M38 50L128 205.25L218 50H182L128 143.15L73.55 50H38Z" fill="#41B883"/>
<path d="M73.55 50L128 143.6L182 50H148.7L128 86L106.85 50H73.55Z" fill="#35495E"/>
<path d="M192.373 210.692L191.028 217.065H196.791V224.557H189.444L187.859 232H180.176L181.761 224.557H173.79L172.205 232H164.522L166.107 224.557H159V217.065H167.691L169.036 210.692H162.073V203.2H170.572L172.109 196H179.792L178.255 203.2H186.226L187.763 196H195.446L193.909 203.2H199.864V210.692H192.373ZM184.69 210.692H176.719L175.374 217.065H183.345L184.69 210.692Z" fill="#35495E"/>
<path d="M226 202.714L213.947 232H205.544L217.741 203.638H202.807V196.535H226V202.714Z" fill="#35495E"/>
</g>
<defs>
<clipPath id="clip0_11_1688">
<rect width="256" height="256" fill="white"/>
</clipPath>
</defs>
</svg>
