<svg width="256" height="256" viewBox="0 0 256 256" fill="none" xmlns="http://www.w3.org/2000/svg">
<g clip-path="url(#clip0_11_1751)">
<path d="M196 0H60C26.8629 0 0 26.8629 0 60V196C0 229.137 26.8629 256 60 256H196C229.137 256 256 229.137 256 196V60C256 26.8629 229.137 0 196 0Z" fill="#F4F2EE"/>
<path d="M182 50H218L128 205.25L38 50H106.85L128 86L148.7 50H182Z" fill="#41B883"/>
<path d="M38 50L128 205.25L218 50H182L128 143.15L73.55 50H38Z" fill="#41B883"/>
<path d="M73.55 50L128 143.6L182 50H148.7L128 86L106.85 50H73.55Z" fill="#35495E"/>
<path d="M182.317 210.692L180.975 217.065H186.727V224.557H179.393L177.811 232H170.141L171.723 224.557H163.765L162.183 232H154.513L156.095 224.557H149V217.065H157.677L159.019 210.692H152.068V203.2H160.553L162.087 196H169.757L168.223 203.2H176.181L177.715 196H185.385L183.851 203.2H189.795V210.692H182.317ZM174.647 210.692H166.689L165.347 217.065H173.305L174.647 210.692Z" fill="#35495E"/>
<path d="M192.686 204.222V196.486H205.965V232H197.432V204.222H192.686Z" fill="#35495E"/>
<path d="M211.764 225.676V218.962L226.913 196.973H236.069V218.476H240V225.676H236.069V232H227.872V225.676H211.764ZM228.447 206.119L220.393 218.476H228.447V206.119Z" fill="#35495E"/>
</g>
<defs>
<clipPath id="clip0_11_1751">
<rect width="256" height="256" fill="white"/>
</clipPath>
</defs>
</svg>
