<svg width="256" height="256" viewBox="0 0 256 256" fill="none" xmlns="http://www.w3.org/2000/svg">
<g clip-path="url(#clip0_11_1706)">
<path d="M196 0H60C26.8629 0 0 26.8629 0 60V196C0 229.137 26.8629 256 60 256H196C229.137 256 256 229.137 256 196V60C256 26.8629 229.137 0 196 0Z" fill="#F4F2EE"/>
<path d="M182 50H218L128 205.25L38 50H106.85L128 86L148.7 50H182Z" fill="#41B883"/>
<path d="M38 50L128 205.25L218 50H182L128 143.15L73.55 50H38Z" fill="#41B883"/>
<path d="M73.55 50L128 143.6L182 50H148.7L128 86L106.85 50H73.55Z" fill="#35495E"/>
<path d="M192.476 210.832L191.127 217.12H196.907V224.512H189.537L187.948 231.856H180.241L181.831 224.512H173.835L172.246 231.856H164.539L166.129 224.512H159V217.12H167.718L169.067 210.832H162.083V203.44H170.608L172.149 196.336H179.856L178.315 203.44H186.31L187.852 196.336H195.558L194.017 203.44H199.99V210.832H192.476ZM184.769 210.832H176.773L175.425 217.12H183.42L184.769 210.832Z" fill="#35495E"/>
<path d="M212.623 221.584C213.105 224.112 214.582 225.376 217.055 225.376C218.757 225.376 219.961 224.624 220.667 223.12C221.374 221.616 221.727 219.168 221.727 215.776C221.02 216.768 220.057 217.536 218.837 218.08C217.617 218.624 216.252 218.896 214.743 218.896C212.688 218.896 210.857 218.48 209.252 217.648C207.646 216.784 206.378 215.52 205.447 213.856C204.548 212.16 204.098 210.112 204.098 207.712C204.098 205.344 204.58 203.28 205.543 201.52C206.538 199.76 207.935 198.4 209.733 197.44C211.564 196.48 213.715 196 216.188 196C220.94 196 224.264 197.472 226.158 200.416C228.053 203.36 229 207.696 229 213.424C229 217.584 228.615 221.024 227.844 223.744C227.105 226.432 225.837 228.48 224.039 229.888C222.273 231.296 219.848 232 216.766 232C214.325 232 212.238 231.52 210.504 230.56C208.802 229.6 207.486 228.336 206.554 226.768C205.655 225.2 205.142 223.472 205.013 221.584H212.623ZM216.621 212.416C217.97 212.416 219.046 212.016 219.848 211.216C220.651 210.384 221.053 209.264 221.053 207.856C221.053 206.32 220.635 205.136 219.8 204.304C218.965 203.472 217.841 203.056 216.429 203.056C215.016 203.056 213.892 203.488 213.057 204.352C212.254 205.184 211.853 206.336 211.853 207.808C211.853 209.184 212.254 210.304 213.057 211.168C213.892 212 215.08 212.416 216.621 212.416Z" fill="#35495E"/>
</g>
<defs>
<clipPath id="clip0_11_1706">
<rect width="256" height="256" fill="white"/>
</clipPath>
</defs>
</svg>
