<svg width="256" height="256" viewBox="0 0 256 256" fill="none" xmlns="http://www.w3.org/2000/svg">
<g clip-path="url(#clip0_11_1661)">
<path d="M196 0H60C26.8629 0 0 26.8629 0 60V196C0 229.137 26.8629 256 60 256H196C229.137 256 256 229.137 256 196V60C256 26.8629 229.137 0 196 0Z" fill="#F4F2EE"/>
<path d="M182 50H218L128 205.25L38 50H106.85L128 86L148.7 50H182Z" fill="#41B883"/>
<path d="M38 50L128 205.25L218 50H182L128 143.15L73.55 50H38Z" fill="#41B883"/>
<path d="M73.55 50L128 143.6L182 50H148.7L128 86L106.85 50H73.55Z" fill="#35495E"/>
<path d="M192.328 210.692L190.985 217.065H196.74V224.557H189.403L187.82 232H180.148L181.73 224.557H173.77L172.187 232H164.515L166.097 224.557H159V217.065H167.68L169.022 210.692H162.069V203.2H170.557L172.091 196H179.764L178.229 203.2H186.19L187.724 196H195.397L193.862 203.2H199.809V210.692H192.328ZM184.655 210.692H176.695L175.352 217.065H183.313L184.655 210.692Z" fill="#35495E"/>
<path d="M203.755 225.676V218.962L218.909 196.973H228.068V218.476H232V225.676H228.068V232H219.868V225.676H203.755ZM220.443 206.119L212.387 218.476H220.443V206.119Z" fill="#35495E"/>
</g>
<defs>
<clipPath id="clip0_11_1661">
<rect width="256" height="256" fill="white"/>
</clipPath>
</defs>
</svg>
