<svg width="256" height="256" viewBox="0 0 256 256" fill="none" xmlns="http://www.w3.org/2000/svg">
<g clip-path="url(#clip0_11_1643)">
<path d="M196 0H60C26.8629 0 0 26.8629 0 60V196C0 229.137 26.8629 256 60 256H196C229.137 256 256 229.137 256 196V60C256 26.8629 229.137 0 196 0Z" fill="#F4F2EE"/>
<path d="M182 50H218L128 205.25L38 50H106.85L128 86L148.7 50H182Z" fill="#41B883"/>
<path d="M38 50L128 205.25L218 50H182L128 143.15L73.55 50H38Z" fill="#41B883"/>
<path d="M73.55 50L128 143.6L182 50H148.7L128 86L106.85 50H73.55Z" fill="#35495E"/>
<path d="M192.646 210.863L191.29 217.185H197.099V224.617H189.693L188.095 232H180.349L181.947 224.617H173.911L172.313 232H164.567L166.165 224.617H159V217.185H167.762L169.118 210.863H162.098V203.432H170.667L172.216 196.29H179.962L178.413 203.432H186.449L187.998 196.29H195.744L194.195 203.432H200.198V210.863H192.646ZM184.9 210.863H176.864L175.508 217.185H183.544L184.9 210.863Z" fill="#35495E"/>
<path d="M203.698 225.389C204.795 224.52 205.295 224.118 205.198 224.182C208.361 221.576 210.846 219.437 212.654 217.764C214.493 216.091 216.042 214.338 217.301 212.504C218.56 210.67 219.189 208.885 219.189 207.147C219.189 205.828 218.883 204.799 218.269 204.059C217.656 203.319 216.736 202.949 215.51 202.949C214.284 202.949 213.315 203.416 212.605 204.349C211.928 205.249 211.589 206.536 211.589 208.209H203.601C203.665 205.475 204.246 203.19 205.344 201.357C206.473 199.523 207.942 198.172 209.749 197.303C211.589 196.434 213.622 196 215.849 196C219.689 196 222.578 196.981 224.514 198.944C226.483 200.906 227.467 203.464 227.467 206.617C227.467 210.059 226.289 213.26 223.933 216.22C221.577 219.147 218.576 222.011 214.929 224.81H228V231.517H203.698V225.389Z" fill="#35495E"/>
</g>
<defs>
<clipPath id="clip0_11_1643">
<rect width="256" height="256" fill="white"/>
</clipPath>
</defs>
</svg>
