<svg width="256" height="256" viewBox="0 0 256 256" fill="none" xmlns="http://www.w3.org/2000/svg">
<g clip-path="url(#clip0_11_1742)">
<path d="M196 0H60C26.8629 0 0 26.8629 0 60V196C0 229.137 26.8629 256 60 256H196C229.137 256 256 229.137 256 196V60C256 26.8629 229.137 0 196 0Z" fill="#F4F2EE"/>
<path d="M182 50H218L128 205.25L38 50H106.85L128 86L148.7 50H182Z" fill="#41B883"/>
<path d="M38 50L128 205.25L218 50H182L128 143.15L73.55 50H38Z" fill="#41B883"/>
<path d="M73.55 50L128 143.6L182 50H148.7L128 86L106.85 50H73.55Z" fill="#35495E"/>
<path d="M182.401 210.773L181.055 217.036H186.822V224.398H179.469L177.883 231.713H170.194L171.78 224.398H163.802L162.216 231.713H154.527L156.113 224.398H149V217.036H157.699L159.044 210.773H152.076V203.41H160.582L162.12 196.335H169.81L168.272 203.41H176.249L177.787 196.335H185.477L183.939 203.41H189.898V210.773H182.401ZM174.712 210.773H166.734L165.388 217.036H173.366L174.712 210.773Z" fill="#35495E"/>
<path d="M192.796 204.414V196.813H206.108V231.713H197.554V204.414H192.796Z" fill="#35495E"/>
<path d="M212.019 206.661C212.147 203.251 213.268 200.622 215.383 198.773C217.497 196.924 220.365 196 223.985 196C226.388 196 228.439 196.414 230.137 197.243C231.867 198.072 233.165 199.203 234.03 200.637C234.927 202.072 235.375 203.681 235.375 205.466C235.375 207.57 234.847 209.291 233.789 210.629C232.732 211.936 231.498 212.829 230.089 213.307V213.498C231.915 214.104 233.357 215.108 234.414 216.51C235.471 217.912 236 219.713 236 221.912C236 223.888 235.535 225.641 234.606 227.171C233.709 228.669 232.38 229.849 230.617 230.709C228.887 231.57 226.821 232 224.418 232C220.573 232 217.497 231.06 215.19 229.179C212.916 227.299 211.714 224.462 211.586 220.669H219.564C219.596 222.072 219.996 223.187 220.765 224.016C221.534 224.813 222.656 225.211 224.129 225.211C225.379 225.211 226.34 224.861 227.013 224.159C227.718 223.426 228.07 222.47 228.07 221.291C228.07 219.761 227.574 218.661 226.58 217.992C225.619 217.291 224.065 216.94 221.919 216.94H220.381V210.295H221.919C223.553 210.295 224.866 210.024 225.86 209.482C226.885 208.908 227.397 207.904 227.397 206.47C227.397 205.323 227.077 204.43 226.436 203.793C225.795 203.155 224.914 202.837 223.793 202.837C222.576 202.837 221.662 203.203 221.054 203.936C220.477 204.669 220.141 205.578 220.044 206.661H212.019Z" fill="#35495E"/>
</g>
<defs>
<clipPath id="clip0_11_1742">
<rect width="256" height="256" fill="white"/>
</clipPath>
</defs>
</svg>
