<svg width="256" height="256" viewBox="0 0 256 256" fill="none" xmlns="http://www.w3.org/2000/svg">
<g clip-path="url(#clip0_11_1582)">
<path d="M196 0H60C26.8629 0 0 26.8629 0 60V196C0 229.137 26.8629 256 60 256H196C229.137 256 256 229.137 256 196V60C256 26.8629 229.137 0 196 0Z" fill="#F4F2EE"/>
<path d="M182 50H218L128 205.25L38 50H106.85L128 86L148.7 50H182Z" fill="#41B883"/>
<path d="M38 50L128 205.25L218 50H182L128 143.15L73.55 50H38Z" fill="#41B883"/>
<path d="M73.55 50L128 143.6L182 50H148.7L128 86L106.85 50H73.55Z" fill="#35495E"/>
<path d="M192.555 210.835L191.203 217.165H196.996V224.607H189.61L188.016 232H180.292L181.885 224.607H173.87L172.277 232H164.552L166.145 224.607H159V217.165H167.739L169.091 210.835H162.09V203.393H170.636L172.18 196.242H179.905L178.36 203.393H186.375L187.92 196.242H195.645L194.1 203.393H200.086V210.835H192.555ZM184.83 210.835H176.815L175.464 217.165H183.478L184.83 210.835Z" fill="#35495E"/>
<path d="M203.867 213.879C203.867 208.338 204.929 203.973 207.053 200.784C209.21 197.595 212.67 196 217.433 196C222.197 196 225.641 197.595 227.765 200.784C229.922 203.973 231 208.338 231 213.879C231 219.485 229.922 223.882 227.765 227.071C225.641 230.26 222.197 231.855 217.433 231.855C212.67 231.855 209.21 230.26 207.053 227.071C204.929 223.882 203.867 219.485 203.867 213.879ZM222.889 213.879C222.889 210.626 222.535 208.129 221.827 206.389C221.119 204.617 219.654 203.732 217.433 203.732C215.212 203.732 213.748 204.617 213.04 206.389C212.332 208.129 211.978 210.626 211.978 213.879C211.978 216.07 212.106 217.89 212.364 219.34C212.621 220.757 213.136 221.917 213.909 222.819C214.714 223.689 215.888 224.123 217.433 224.123C218.978 224.123 220.137 223.689 220.909 222.819C221.714 221.917 222.245 220.757 222.503 219.34C222.76 217.89 222.889 216.07 222.889 213.879Z" fill="#35495E"/>
</g>
<defs>
<clipPath id="clip0_11_1582">
<rect width="256" height="256" fill="white"/>
</clipPath>
</defs>
</svg>
