<svg width="256" height="256" viewBox="0 0 256 256" fill="none" xmlns="http://www.w3.org/2000/svg">
<g clip-path="url(#clip0_11_1697)">
<path d="M196 0H60C26.8629 0 0 26.8629 0 60V196C0 229.137 26.8629 256 60 256H196C229.137 256 256 229.137 256 196V60C256 26.8629 229.137 0 196 0Z" fill="#F4F2EE"/>
<path d="M182 50H218L128 205.25L38 50H106.85L128 86L148.7 50H182Z" fill="#41B883"/>
<path d="M38 50L128 205.25L218 50H182L128 143.15L73.55 50H38Z" fill="#41B883"/>
<path d="M73.55 50L128 143.6L182 50H148.7L128 86L106.85 50H73.55Z" fill="#35495E"/>
<path d="M192.38 210.561L191.035 216.775H196.798V224.079H189.45L187.865 231.336H180.18L181.765 224.079H173.793L172.208 231.336H164.523L166.108 224.079H159V216.775H167.693L169.038 210.561H162.074V203.257H170.575L172.112 196.237H179.796L178.259 203.257H186.232L187.769 196.237H195.453L193.917 203.257H199.872V210.561H192.38ZM184.695 210.561H176.722L175.378 216.775H183.35L184.695 210.561Z" fill="#35495E"/>
<path d="M209.396 212.743C206.386 211.162 204.881 208.68 204.881 205.296C204.881 203.589 205.329 202.04 206.226 200.648C207.123 199.225 208.483 198.103 210.308 197.281C212.133 196.427 214.375 196 217.032 196C219.69 196 221.915 196.427 223.708 197.281C225.533 198.103 226.894 199.225 227.791 200.648C228.687 202.04 229.135 203.589 229.135 205.296C229.135 207.004 228.719 208.49 227.887 209.755C227.086 211.02 225.998 212.016 224.621 212.743C226.35 213.565 227.679 214.704 228.607 216.158C229.536 217.581 230 219.257 230 221.186C230 223.431 229.424 225.375 228.271 227.02C227.118 228.632 225.549 229.866 223.564 230.719C221.611 231.573 219.434 232 217.032 232C214.631 232 212.438 231.573 210.453 230.719C208.499 229.866 206.946 228.632 205.794 227.02C204.641 225.375 204.065 223.431 204.065 221.186C204.065 219.225 204.529 217.534 205.458 216.111C206.386 214.656 207.699 213.534 209.396 212.743ZM221.163 206.53C221.163 205.233 220.779 204.237 220.01 203.542C219.274 202.814 218.281 202.451 217.032 202.451C215.784 202.451 214.775 202.814 214.007 203.542C213.27 204.269 212.902 205.281 212.902 206.577C212.902 207.81 213.286 208.791 214.055 209.518C214.823 210.213 215.816 210.561 217.032 210.561C218.249 210.561 219.242 210.198 220.01 209.47C220.779 208.743 221.163 207.763 221.163 206.53ZM217.032 216.253C215.527 216.253 214.311 216.664 213.382 217.486C212.454 218.277 211.989 219.383 211.989 220.806C211.989 222.134 212.438 223.225 213.334 224.079C214.263 224.933 215.495 225.36 217.032 225.36C218.569 225.36 219.77 224.933 220.634 224.079C221.531 223.225 221.979 222.134 221.979 220.806C221.979 219.415 221.515 218.308 220.586 217.486C219.69 216.664 218.505 216.253 217.032 216.253Z" fill="#35495E"/>
</g>
<defs>
<clipPath id="clip0_11_1697">
<rect width="256" height="256" fill="white"/>
</clipPath>
</defs>
</svg>
