<svg width="256" height="256" viewBox="0 0 256 256" fill="none" xmlns="http://www.w3.org/2000/svg">
<g clip-path="url(#clip0_11_1670)">
<path d="M196 0H60C26.8629 0 0 26.8629 0 60V196C0 229.137 26.8629 256 60 256H196C229.137 256 256 229.137 256 196V60C256 26.8629 229.137 0 196 0Z" fill="#F4F2EE"/>
<path d="M182 50H218L128 205.25L38 50H106.85L128 86L148.7 50H182Z" fill="#41B883"/>
<path d="M38 50L128 205.25L218 50H182L128 143.15L73.55 50H38Z" fill="#41B883"/>
<path d="M73.55 50L128 143.6L182 50H148.7L128 86L106.85 50H73.55Z" fill="#35495E"/>
<path d="M192.222 210.692L190.884 217.065H196.62V224.557H189.306L187.729 232H180.081L181.658 224.557H173.723L172.146 232H164.497L166.075 224.557H159V217.065H167.652L168.991 210.692H162.059V203.2H170.52L172.05 196H179.698L178.169 203.2H186.104L187.633 196H195.282L193.752 203.2H199.679V210.692H192.222ZM184.574 210.692H176.639L175.3 217.065H183.236L184.574 210.692Z" fill="#35495E"/>
<path d="M227.992 203.735H213.078V210.449C213.715 209.735 214.608 209.151 215.755 208.697C216.902 208.243 218.145 208.016 219.484 208.016C221.874 208.016 223.849 208.568 225.411 209.67C227.004 210.773 228.168 212.2 228.901 213.951C229.634 215.703 230 217.6 230 219.643C230 223.438 228.948 226.454 226.845 228.692C224.742 230.897 221.778 232 217.954 232C215.404 232 213.19 231.562 211.309 230.686C209.429 229.778 207.979 228.53 206.959 226.941C205.94 225.351 205.382 223.519 205.286 221.443H213.269C213.461 222.449 213.923 223.292 214.656 223.973C215.389 224.622 216.392 224.946 217.667 224.946C219.165 224.946 220.28 224.459 221.013 223.486C221.746 222.514 222.113 221.216 222.113 219.595C222.113 218.005 221.73 216.789 220.965 215.946C220.201 215.103 219.085 214.681 217.619 214.681C216.536 214.681 215.644 214.957 214.942 215.508C214.241 216.027 213.779 216.724 213.556 217.6H205.669V196.438H227.992V203.735Z" fill="#35495E"/>
</g>
<defs>
<clipPath id="clip0_11_1670">
<rect width="256" height="256" fill="white"/>
</clipPath>
</defs>
</svg>
