<svg width="256" height="256" viewBox="0 0 256 256" fill="none" xmlns="http://www.w3.org/2000/svg">
<g clip-path="url(#clip0_11_1679)">
<path d="M196 0H60C26.8629 0 0 26.8629 0 60V196C0 229.137 26.8629 256 60 256H196C229.137 256 256 229.137 256 196V60C256 26.8629 229.137 0 196 0Z" fill="#F4F2EE"/>
<path d="M182 50H218L128 205.25L38 50H106.85L128 86L148.7 50H182Z" fill="#41B883"/>
<path d="M38 50L128 205.25L218 50H182L128 143.15L73.55 50H38Z" fill="#41B883"/>
<path d="M73.55 50L128 143.6L182 50H148.7L128 86L106.85 50H73.55Z" fill="#35495E"/>
<path d="M192.584 210.756L191.231 217.052H197.03V224.454H189.636L188.042 231.808H180.31L181.905 224.454H173.883L172.289 231.808H164.557L166.152 224.454H159V217.052H167.746L169.099 210.756H162.093V203.354H170.646L172.192 196.24H179.924L178.377 203.354H186.399L187.945 196.24H195.677L194.13 203.354H200.122V210.756H192.584ZM184.853 210.756H176.831L175.478 217.052H183.499L184.853 210.756Z" fill="#35495E"/>
<path d="M221.35 206.19C221.093 205.004 220.642 204.123 219.997 203.546C219.353 202.937 218.435 202.633 217.243 202.633C215.407 202.633 214.086 203.434 213.28 205.036C212.475 206.606 212.056 209.105 212.024 212.534C212.733 211.413 213.748 210.531 215.068 209.891C216.421 209.25 217.903 208.929 219.514 208.929C222.671 208.929 225.2 209.923 227.101 211.909C229.034 213.896 230 216.668 230 220.224C230 222.563 229.517 224.614 228.55 226.377C227.616 228.139 226.231 229.517 224.395 230.51C222.591 231.503 220.448 232 217.968 232C213.007 232 209.56 230.462 207.627 227.386C205.694 224.278 204.727 219.824 204.727 214.024C204.727 207.936 205.742 203.418 207.772 200.47C209.833 197.49 213.119 196 217.629 196C220.046 196 222.075 196.481 223.718 197.442C225.393 198.371 226.65 199.605 227.487 201.143C228.357 202.681 228.872 204.363 229.034 206.19H221.35ZM217.533 215.418C216.148 215.418 214.988 215.834 214.054 216.668C213.152 217.469 212.701 218.622 212.701 220.128C212.701 221.666 213.119 222.868 213.957 223.733C214.827 224.598 216.051 225.031 217.629 225.031C219.047 225.031 220.158 224.614 220.964 223.781C221.801 222.916 222.22 221.746 222.22 220.272C222.22 218.766 221.817 217.581 221.012 216.716C220.207 215.85 219.047 215.418 217.533 215.418Z" fill="#35495E"/>
</g>
<defs>
<clipPath id="clip0_11_1679">
<rect width="256" height="256" fill="white"/>
</clipPath>
</defs>
</svg>
