<svg width="256" height="256" viewBox="0 0 256 256" fill="none" xmlns="http://www.w3.org/2000/svg">
<g clip-path="url(#clip0_11_1652)">
<path d="M196 0H60C26.8629 0 0 26.8629 0 60V196C0 229.137 26.8629 256 60 256H196C229.137 256 256 229.137 256 196V60C256 26.8629 229.137 0 196 0Z" fill="#F4F2EE"/>
<path d="M182 50H218L128 205.25L38 50H106.85L128 86L148.7 50H182Z" fill="#41B883"/>
<path d="M38 50L128 205.25L218 50H182L128 143.15L73.55 50H38Z" fill="#41B883"/>
<path d="M73.55 50L128 143.6L182 50H148.7L128 86L106.85 50H73.55Z" fill="#35495E"/>
<path d="M192.435 210.773L191.088 217.036H196.86V224.398H189.5L187.912 231.713H180.215L181.803 224.398H173.817L172.229 231.713H164.532L166.12 224.398H159V217.036H167.707L169.054 210.773H162.079V203.41H170.594L172.133 196.335H179.83L178.291 203.41H186.277L187.816 196.335H195.513L193.974 203.41H199.939V210.773H192.435ZM184.737 210.773H176.752L175.405 217.036H183.39L184.737 210.773Z" fill="#35495E"/>
<path d="M203.995 206.661C204.123 203.251 205.245 200.622 207.362 198.773C209.479 196.924 212.349 196 215.973 196C218.379 196 220.431 196.414 222.131 197.243C223.863 198.072 225.162 199.203 226.028 200.637C226.926 202.072 227.375 203.681 227.375 205.466C227.375 207.57 226.845 209.291 225.787 210.629C224.729 211.936 223.494 212.829 222.083 213.307V213.498C223.911 214.104 225.354 215.108 226.412 216.51C227.471 217.912 228 219.713 228 221.912C228 223.888 227.535 225.641 226.605 227.171C225.707 228.669 224.376 229.849 222.612 230.709C220.88 231.57 218.812 232 216.406 232C212.558 232 209.479 231.06 207.17 229.179C204.893 227.299 203.69 224.462 203.562 220.669H211.547C211.579 222.072 211.98 223.187 212.75 224.016C213.52 224.813 214.642 225.211 216.118 225.211C217.368 225.211 218.33 224.861 219.004 224.159C219.71 223.426 220.062 222.47 220.062 221.291C220.062 219.761 219.565 218.661 218.571 217.992C217.609 217.291 216.053 216.94 213.905 216.94H212.365V210.295H213.905C215.54 210.295 216.855 210.024 217.849 209.482C218.876 208.908 219.389 207.904 219.389 206.47C219.389 205.323 219.068 204.43 218.427 203.793C217.785 203.155 216.903 202.837 215.781 202.837C214.562 202.837 213.648 203.203 213.039 203.936C212.461 204.669 212.125 205.578 212.028 206.661H203.995Z" fill="#35495E"/>
</g>
<defs>
<clipPath id="clip0_11_1652">
<rect width="256" height="256" fill="white"/>
</clipPath>
</defs>
</svg>
