<?xml version="1.0" encoding="UTF-8" standalone="no"?>
<!-- Created with Inkscape (http://www.inkscape.org/) -->

<svg
   width="376.21774mm"
   height="178.45662mm"
   viewBox="0 0 376.21773 178.45662"
   version="1.1"
   id="svg1"
   xml:space="preserve"
   xmlns="http://www.w3.org/2000/svg"
   xmlns:svg="http://www.w3.org/2000/svg"><defs
     id="defs1" /><g
     id="layer6"
     transform="translate(-8.2430249,-6.6290529)"><g
       id="layer5"><g
         id="layer2"><path
           id="path1"
           style="display:inline;fill:#6ecff6;fill-opacity:1;stroke:#000000;stroke-width:0;stroke-dasharray:2.73591, 2.73591"
           d="M 296.20208,6.6290527 A 88.258499,88.258499 0 0 0 207.9439,94.887748 88.258499,88.258499 0 0 0 296.20208,183.14593 88.258499,88.258499 0 0 0 384.46077,94.887748 88.258499,88.258499 0 0 0 296.20208,6.6290527 Z m 0,4.4090333 a 83.849487,83.849487 0 0 1 83.84966,83.849662 83.849487,83.849487 0 0 1 -83.84966,83.849662 83.849487,83.849487 0 0 1 -83.84915,-83.849662 83.849487,83.849487 0 0 1 83.84915,-83.849662 z" /><g
           id="g1"
           style="display:inline"><path
             style="font-weight:bold;font-size:46.8333px;font-family:'Source Sans Pro';-inkscape-font-specification:'Source Sans Pro';text-align:center;letter-spacing:-0.304903px;word-spacing:0.0170745px;text-anchor:middle;fill:#6ecff6;stroke:#000000;stroke-width:0;stroke-dasharray:2.42369, 2.42369"
             d="m 315.15195,118.58471 q -5.94782,0 -9.08566,-3.5125 -3.13783,-3.51249 -3.13783,-11.19315 V 87.4874 h 6.93133 v 17.09416 q 0,4.49599 1.35817,6.27566 1.35816,1.77966 3.93399,1.77966 2.57584,0 3.98084,-1.77966 1.40499,-1.77967 1.40499,-6.27566 V 87.4874 h 6.65033 v 16.39166 q 0,7.68066 -3.09099,11.19315 -3.04417,3.5125 -8.94517,3.5125 z"
             id="text29-8-5-5"
             transform="scale(1.0585294,0.94470687)"
             aria-label="U" /><path
             style="font-weight:bold;font-size:41.9935px;font-family:'Source Sans Pro';-inkscape-font-specification:'Source Sans Pro';text-align:center;letter-spacing:-0.273394px;word-spacing:0.0153101px;text-anchor:middle;fill:#6ecff6;stroke:#000000;stroke-width:0;stroke-dasharray:2.17323, 2.17323"
             d="M 308.8858,105.82618 V 78.446418 h 9.40655 q 2.26765,0 4.24134,0.461928 1.9737,0.419935 3.44347,1.469773 1.46977,1.007844 2.30964,2.729577 0.88186,1.67974 0.88186,4.157357 0,2.393629 -0.88186,4.157356 -0.83987,1.763727 -2.30964,2.897552 -1.46977,1.133824 -3.40147,1.67974 -1.93171,0.545915 -4.11537,0.545915 h -3.40147 v 9.280564 z m 6.17305,-14.193803 h 3.02353 q 5.03922,0 5.03922,-4.367324 0,-2.141669 -1.34379,-3.023532 -1.34379,-0.881864 -3.8634,-0.881864 h -2.85556 z"
             id="text29-8-5"
             transform="scale(0.94914074,1.0535845)"
             aria-label="P" /><path
             style="font-weight:bold;font-size:46.1772px;font-family:'Source Sans Pro';-inkscape-font-specification:'Source Sans Pro';text-align:center;letter-spacing:-0.300632px;word-spacing:0.0168354px;text-anchor:middle;fill:#6ecff6;stroke:#000000;stroke-width:0;stroke-dasharray:2.38974, 2.38974"
             d="M 263.44513,116.36952 V 86.261987 h 6.78805 v 30.107533 z"
             id="text29-8"
             transform="scale(1.0437028,0.95812716)"
             aria-label="I" /><path
             style="font-weight:bold;font-size:46.1772px;font-family:'Source Sans Pro';-inkscape-font-specification:'Source Sans Pro';text-align:center;letter-spacing:-0.300632px;word-spacing:0.0168354px;text-anchor:middle;fill:#6ecff6;stroke:#000000;stroke-width:0;stroke-dasharray:2.38974, 2.38974"
             d="M 236.0988,116.36952 V 86.261987 h 18.97883 v 5.725973 h -12.19078 v 6.972758 h 10.43605 v 5.725972 h -10.43605 v 11.68283 z"
             id="text29"
             transform="scale(1.0437028,0.95812718)"
             aria-label="F" /></g></g></g><g
       id="layer4"
       transform="translate(7.5846956,6.9143256)"
       style="display:inline"><g
         id="layer3"
         transform="translate(-16.393662,-37.468924)"><g
           id="g7"><path
             style="font-weight:bold;font-size:22.5778px;font-family:'Trajan Pro';-inkscape-font-specification:'Trajan Pro';text-align:center;letter-spacing:-0.330729px;word-spacing:0.0185208px;text-anchor:middle;fill:#8d8c8d;stroke:#000000;stroke-width:0;stroke-dasharray:2.62897, 2.62897"
             d="m -63.685145,-230.67079 c 0,1.85138 0,3.38667 -0.09031,4.1769 -0.06773,0.56444 -0.180622,0.83537 -0.587023,0.92569 -0.180622,0.0451 -0.4064,0.0677 -0.699912,0.0677 -0.248355,0 -0.316089,0.11289 -0.316089,0.2032 0,0.13547 0.135467,0.2032 0.383823,0.2032 0.790223,0 2.144891,-0.0677 2.596447,-0.0677 0.541867,0 1.896535,0.0677 3.206048,0.0677 0.225778,0 0.383822,-0.0677 0.383822,-0.2032 0,-0.0903 -0.09031,-0.2032 -0.316089,-0.2032 -0.293511,0 -0.745067,-0.0226 -1.016001,-0.0677 -0.587023,-0.0903 -0.72249,-0.38383 -0.790223,-0.90312 -0.09031,-0.8128 -0.09031,-2.34809 -0.09031,-4.19947 v -3.38667 c 0,-2.91253 0,-3.4544 0.04516,-4.064 0.04516,-0.67734 0.203201,-0.94827 0.745068,-1.03858 0.225778,-0.0452 0.383822,-0.0677 0.587023,-0.0677 0.2032,0 0.316089,-0.0452 0.316089,-0.22578 0,-0.11289 -0.158045,-0.15805 -0.406401,-0.15805 -0.767645,0 -2.054579,0.0452 -2.551291,0.0452 -0.564445,0 -1.919113,-0.0452 -2.664181,-0.0452 -0.316089,0 -0.474133,0.0452 -0.474133,0.15805 0,0.18062 0.112889,0.22578 0.316089,0.22578 0.248356,0 0.496712,0.0226 0.72249,0.0903 0.428978,0.13546 0.632178,0.36124 0.677334,1.016 0.02258,0.6096 0.02258,1.15147 0.02258,4.064 z"
             id="text5-3-1-2-9-4"
             transform="rotate(162.39049)"
             aria-label="i" /><path
             style="font-weight:bold;font-size:22.5778px;font-family:'Trajan Pro';-inkscape-font-specification:'Trajan Pro';text-align:center;letter-spacing:-0.330729px;word-spacing:0.0185208px;text-anchor:middle;fill:#8d8c8d;stroke:#000000;stroke-width:0;stroke-dasharray:2.62897, 2.62897"
             d="m -42.219334,-241.2374 c 0,-2.91254 0,-3.45441 0.04516,-4.06401 0.04516,-0.67733 0.2032,-0.94827 0.745067,-1.03858 0.225778,-0.0452 0.541867,-0.0677 0.767646,-0.0677 0.248355,0 0.361244,-0.0677 0.361244,-0.2032 0,-0.13547 -0.135466,-0.18062 -0.428978,-0.18062 -0.767645,0 -2.393247,0.0452 -2.867381,0.0452 -0.541867,0 -1.806224,-0.0452 -2.731913,-0.0452 -0.293512,0 -0.428979,0.0452 -0.428979,0.18062 0,0.13547 0.112889,0.2032 0.338667,0.2032 0.248356,0 0.496712,0.0226 0.654757,0.0677 0.632178,0.18062 0.8128,0.38383 0.857956,1.03858 0.02258,0.6096 0.02258,1.15147 0.02258,4.06401 v 3.38667 c 0,1.76106 0,3.27378 -0.09031,4.08658 -0.06773,0.56444 -0.180623,0.92569 -0.587023,1.016 -0.180623,0.0452 -0.406401,0.0677 -0.699912,0.0677 -0.248356,0 -0.316089,0.11289 -0.316089,0.2032 0,0.13547 0.135467,0.2032 0.383822,0.2032 0.406401,0 0.903112,-0.0226 1.377246,-0.0452 0.474134,0 0.903112,-0.0226 1.12889,-0.0226 0.812801,0 1.64818,0.0226 2.641603,0.0451 0.993423,0.0452 2.144891,0.0677 3.567292,0.0677 1.038579,0 1.12889,-0.0903 1.264357,-0.51929 0.158045,-0.56445 0.293512,-1.98685 0.293512,-2.21263 0,-0.22577 -0.04516,-0.42897 -0.180623,-0.42897 -0.158044,0 -0.2032,0.11288 -0.225778,0.29351 -0.04515,0.36124 -0.248356,0.90311 -0.496711,1.15147 -0.496712,0.51928 -1.264357,0.54186 -2.325514,0.54186 -1.53529,0 -2.302936,-0.11289 -2.641603,-0.4064 -0.428978,-0.36124 -0.428978,-1.58044 -0.428978,-4.04142 z"
             id="text5-3-1-2-9-7-3"
             transform="rotate(154.52202)"
             aria-label="l" /><path
             style="font-weight:bold;font-size:22.5778px;font-family:'Trajan Pro';-inkscape-font-specification:'Trajan Pro';text-align:center;letter-spacing:-0.330729px;word-spacing:0.0185208px;text-anchor:middle;fill:#8d8c8d;stroke:#000000;stroke-width:0;stroke-dasharray:2.62897, 2.62897"
             d="m -13.052156,-243.57602 c 0,2.77707 0.790223,4.19947 1.806224,5.08 1.4449792,1.26436 3.499559,1.30952 4.5381379,1.30952 1.2869346,0 2.7996473,-0.2032 4.1994709,-1.37725 1.67075727,-1.37725 1.89653528,-3.63503 1.89653528,-5.77992 v -2.05458 c 0,-2.91253 0.0225778,-3.4544 0.0451556,-4.064 0.0451556,-0.67734 0.18062241,-0.94827 0.72248963,-1.03858 0.2483558,-0.0452 0.36124481,-0.0677 0.58702282,-0.0677 0.225778,0 0.33866697,-0.0677 0.33866697,-0.2032 0,-0.13547 -0.13546677,-0.18063 -0.40640038,-0.18063 -0.76764522,0 -2.09973542,0.0452 -2.32551352,0.0452 -0.022578,0 -1.354668,-0.0452 -2.370669,-0.0452 -0.2709336,0 -0.4064004,0.0452 -0.4064004,0.18063 0,0.13546 0.112889,0.2032 0.338667,0.2032 0.225778,0 0.564445,0.0226 0.7224896,0.0677 0.6321784,0.18062 0.790223,0.38382 0.8353786,1.03858 0.022578,0.6096 0.045156,1.15147 0.045156,4.064 v 2.41583 c 0,1.96427 -0.045156,3.63502 -1.1514678,4.6736 -0.790223,0.76765 -1.8062241,1.016 -2.6641805,1.016 -0.677334,0 -1.6256017,-0.0677 -2.5061359,-0.76764 -0.9708454,-0.76765 -1.5127128,-1.85138 -1.5127128,-4.65103 v -2.68676 c 0,-2.91253 0,-3.4544 0.04516,-4.064 0.04516,-0.67734 0.203201,-0.94827 0.7224904,-1.03858 0.2483558,-0.0452 0.3612448,-0.0677 0.5870228,-0.0677 0.2032002,0 0.3160892,-0.0677 0.3160892,-0.2032 0,-0.13547 -0.1354668,-0.18063 -0.4289782,-0.18063 -0.7224896,0 -2.0545802,0.0452 -2.5512922,0.0452 -0.587023,0 -1.919113,-0.0452 -2.980269,-0.0452 -0.293512,0 -0.428979,0.0452 -0.428979,0.18063 0,0.13546 0.112889,0.2032 0.338667,0.2032 0.270934,0 0.609601,0.0226 0.767646,0.0677 0.632178,0.18062 0.8128,0.36124 0.857956,1.03858 0.04516,0.6096 0.02258,1.15147 0.02258,4.064 z"
             id="text5-3-1-6-4"
             transform="rotate(142.45114)"
             aria-label="u" /><path
             style="font-weight:bold;font-size:22.5778px;font-family:'Trajan Pro';-inkscape-font-specification:'Trajan Pro';text-align:center;letter-spacing:-0.330729px;word-spacing:0.0185208px;text-anchor:middle;fill:#8d8c8d;stroke:#000000;stroke-width:0;stroke-dasharray:2.62897, 2.62897"
             d="m 29.221833,-241.06534 c 0,2.07716 0,3.8608 -0.112889,4.80907 -0.09031,0.65476 -0.2032,1.15147 -0.654756,1.24178 -0.203201,0.0452 -0.474134,0.0903 -0.812801,0.0903 -0.270934,0 -0.361245,0.0677 -0.361245,0.18063 0,0.15804 0.158045,0.22577 0.451556,0.22577 0.903112,0 2.325513,-0.0677 2.844803,-0.0677 0.587023,0 2.009424,0.0677 3.499559,0.0677 0.248356,0 0.428978,-0.0677 0.428978,-0.22577 0,-0.11289 -0.112889,-0.18063 -0.361245,-0.18063 -0.338667,0 -0.835378,-0.0452 -1.151467,-0.0903 -0.677334,-0.0903 -0.812801,-0.58702 -0.880535,-1.2192 -0.112889,-0.97085 -0.112889,-2.75449 -0.112889,-4.83165 v -9.03112 c 0,-0.24836 0.06773,-0.38382 0.180623,-0.42898 0.2032,-0.0677 0.541867,-0.0903 0.880534,-0.0903 0.519289,0 1.444979,0.13547 2.25778,0.88054 1.264357,1.12889 1.33209,2.6416 1.33209,3.38667 0,2.30293 -1.761068,3.72533 -3.025425,3.72533 -0.474134,0 -0.632178,0.0677 -0.632178,0.24836 0,0.15804 0.158044,0.18062 0.270933,0.2032 0.112889,0.0226 0.361245,0.0226 0.474134,0.0226 3.206048,0 5.554139,-2.25778 5.554139,-5.46383 0,-1.19662 -0.632178,-2.21263 -1.12889,-2.68676 -0.361245,-0.33867 -1.377246,-1.28693 -4.199471,-1.28693 -1.038579,0 -2.348091,0.0677 -3.273781,0.0677 -0.632179,0 -2.05458,-0.0677 -3.251203,-0.0677 -0.338667,0 -0.496712,0.0452 -0.496712,0.2032 0,0.15804 0.135467,0.2032 0.383823,0.2032 0.316089,0 0.699911,0.0226 0.880534,0.0677 0.745067,0.15804 0.92569,0.51929 0.970845,1.28693 0.04516,0.72249 0.04516,1.35467 0.04516,4.7865 z"
             id="text5-3-1-6-4-1-3-0-5-4-8-8-8"
             transform="rotate(128.95495)"
             aria-label="P" /></g><g
           id="g8"><path
             style="font-weight:bold;font-size:22.5778px;font-family:'Trajan Pro';-inkscape-font-specification:'Trajan Pro';text-align:center;letter-spacing:-0.330729px;word-spacing:0.0185208px;text-anchor:middle;fill:#8d8c8d;stroke:#000000;stroke-width:0;stroke-dasharray:2.62897, 2.62897"
             d="m 72.279981,-224.03408 c 0,2.77707 0.790223,4.19947 1.806224,5.08001 1.444979,1.26436 3.499559,1.30951 4.538138,1.30951 1.286935,0 2.799647,-0.2032 4.199471,-1.37724 1.670757,-1.37725 1.896535,-3.63503 1.896535,-5.77992 v -2.05458 c 0,-2.91254 0.02258,-3.4544 0.04516,-4.06401 0.04515,-0.67733 0.180622,-0.94826 0.722489,-1.03857 0.248356,-0.0452 0.361245,-0.0677 0.587023,-0.0677 0.225778,0 0.338667,-0.0677 0.338667,-0.2032 0,-0.13546 -0.135467,-0.18062 -0.4064,-0.18062 -0.767645,0 -2.099736,0.0452 -2.325514,0.0452 -0.02258,0 -1.354668,-0.0452 -2.370669,-0.0452 -0.270933,0 -0.4064,0.0452 -0.4064,0.18062 0,0.13547 0.112889,0.2032 0.338667,0.2032 0.225778,0 0.564445,0.0226 0.722489,0.0677 0.632179,0.18062 0.790224,0.38382 0.835379,1.03857 0.02258,0.60961 0.04516,1.15147 0.04516,4.06401 v 2.41582 c 0,1.96427 -0.04516,3.63503 -1.151468,4.67361 -0.790223,0.76764 -1.806224,1.016 -2.664181,1.016 -0.677334,0 -1.625601,-0.0677 -2.506135,-0.76765 -0.970846,-0.76764 -1.512713,-1.85138 -1.512713,-4.65102 v -2.68676 c 0,-2.91254 0,-3.4544 0.04516,-4.06401 0.04516,-0.67733 0.203201,-0.94826 0.72249,-1.03857 0.248356,-0.0452 0.361245,-0.0677 0.587023,-0.0677 0.2032,0 0.316089,-0.0677 0.316089,-0.2032 0,-0.13546 -0.135467,-0.18062 -0.428978,-0.18062 -0.72249,0 -2.05458,0.0452 -2.551292,0.0452 -0.587022,0 -1.919113,-0.0452 -2.980269,-0.0452 -0.293512,0 -0.428978,0.0452 -0.428978,0.18062 0,0.13547 0.112889,0.2032 0.338667,0.2032 0.270933,0 0.6096,0.0226 0.767645,0.0677 0.632178,0.18062 0.812801,0.36124 0.857956,1.03857 0.04516,0.60961 0.02258,1.15147 0.02258,4.06401 z"
             id="text5-3-1-6"
             transform="rotate(111.80611)"
             aria-label="u" /></g><g
           id="g9"><path
             style="font-weight:bold;font-size:22.5778px;font-family:'Trajan Pro';-inkscape-font-specification:'Trajan Pro';text-align:center;letter-spacing:-0.330729px;word-spacing:0.0185208px;text-anchor:middle;fill:#8d8c8d;stroke:#000000;stroke-width:0;stroke-dasharray:2.62897, 2.62897"
             d="m 114.1284,-194.54963 c 0,1.76107 0,3.27378 -0.0903,4.08658 -0.0677,0.56444 -0.18062,0.92569 -0.58702,1.016 -0.18062,0.0452 -0.4064,0.0677 -0.69991,0.0677 -0.24836,0 -0.31609,0.11289 -0.31609,0.2032 0,0.13547 0.13546,0.2032 0.38382,0.2032 0.4064,0 0.90311,-0.0226 1.37725,-0.0452 0.47413,0 0.90311,-0.0226 1.12889,-0.0226 0.58702,0 1.33209,0.0226 2.30293,0.0452 0.97085,0.0451 2.16747,0.0677 3.65761,0.0677 0.74506,0 0.92569,0 1.06115,-0.49671 0.11289,-0.38382 0.27094,-1.69334 0.27094,-2.12232 0,-0.2032 -0.0226,-0.45155 -0.18063,-0.45155 -0.13546,0 -0.18062,0.0903 -0.22577,0.29351 -0.13547,0.79022 -0.36125,1.19662 -0.85796,1.4224 -0.51929,0.22578 -1.35467,0.24836 -1.87396,0.24836 -2.032,0 -2.6416,-0.29351 -2.68676,-1.60303 -0.0226,-0.56444 0,-2.19004 0,-2.8448 v -1.53529 c 0,-0.11289 0.0226,-0.2032 0.11289,-0.2032 0.49671,0 2.75449,0.0452 3.11574,0.0903 0.74507,0.0677 0.99342,0.36125 1.10631,0.74507 0.0452,0.24835 0.0452,0.49671 0.0677,0.69991 0,0.0903 0.0452,0.15805 0.18063,0.15805 0.18062,0 0.2032,-0.27094 0.2032,-0.42898 0,-0.13547 0.0451,-0.90312 0.0903,-1.28694 0.11289,-0.97084 0.15804,-1.28693 0.15804,-1.39982 0,-0.11289 -0.0677,-0.2032 -0.15804,-0.2032 -0.0903,0 -0.15805,0.11289 -0.31609,0.24835 -0.18062,0.2032 -0.47414,0.24836 -0.94827,0.29352 -0.45155,0.0452 -3.02542,0.0452 -3.47698,0.0452 -0.11289,0 -0.13547,-0.0903 -0.13547,-0.2032 v -4.74134 c 0,-0.11289 0.0452,-0.18062 0.13547,-0.18062 0.4064,0 2.77707,0.0452 3.11574,0.0903 0.99342,0.0903 1.15146,0.36125 1.30951,0.69991 0.11289,0.22578 0.13547,0.56445 0.13547,0.69992 0,0.15804 0.0226,0.24835 0.15804,0.24835 0.15804,0 0.2032,-0.22578 0.22578,-0.31609 0.0451,-0.22578 0.0903,-1.06115 0.11289,-1.26436 0.0452,-0.88053 0.15804,-1.10631 0.15804,-1.24177 0,-0.0903 -0.0226,-0.18063 -0.13547,-0.18063 -0.0903,0 -0.2032,0.0677 -0.31608,0.0903 -0.15805,0.0226 -0.47414,0.0903 -0.83538,0.11289 -0.38383,0.0226 -4.7865,0 -5.41868,0 -0.56444,0 -1.8288,-0.0452 -2.86738,-0.0452 -0.29351,0 -0.45155,0.0452 -0.45155,0.18062 0,0.13547 0.13546,0.2032 0.33867,0.2032 0.29351,0 0.63217,0.0226 0.79022,0.0677 0.63218,0.18063 0.8128,0.38383 0.85795,1.03858 0.0226,0.6096 0.0226,1.15147 0.0226,4.06401 z"
             id="text5-3-6"
             transform="rotate(94.94572)"
             aria-label="e" /><path
             style="font-weight:bold;font-size:22.5778px;font-family:'Trajan Pro';-inkscape-font-specification:'Trajan Pro';text-align:center;letter-spacing:-0.330729px;word-spacing:0.0185208px;text-anchor:middle;fill:#8d8c8d;stroke:#000000;stroke-width:0;stroke-dasharray:2.62897, 2.62897"
             d="m 126.55362,-182.98545 c 0,-2.91254 0,-3.4544 0.0452,-4.06401 0.0451,-0.67733 0.2032,-0.94826 0.74507,-1.03857 0.22577,-0.0452 0.54186,-0.0677 0.76764,-0.0677 0.24836,0 0.36125,-0.0677 0.36125,-0.2032 0,-0.13546 -0.13547,-0.18062 -0.42898,-0.18062 -0.76765,0 -2.39325,0.0452 -2.86738,0.0452 -0.54187,0 -1.80623,-0.0452 -2.73192,-0.0452 -0.29351,0 -0.42897,0.0452 -0.42897,0.18062 0,0.13547 0.11288,0.2032 0.33866,0.2032 0.24836,0 0.49671,0.0226 0.65476,0.0677 0.63218,0.18062 0.8128,0.38382 0.85795,1.03857 0.0226,0.60961 0.0226,1.15147 0.0226,4.06401 v 3.38667 c 0,1.76107 0,3.27378 -0.0903,4.08658 -0.0677,0.56445 -0.18062,0.92569 -0.58702,1.016 -0.18062,0.0452 -0.4064,0.0677 -0.69991,0.0677 -0.24836,0 -0.31609,0.11288 -0.31609,0.2032 0,0.13546 0.13546,0.2032 0.38382,0.2032 0.4064,0 0.90311,-0.0226 1.37725,-0.0452 0.47413,0 0.90311,-0.0226 1.12889,-0.0226 0.8128,0 1.64818,0.0226 2.6416,0.0452 0.99342,0.0451 2.14489,0.0677 3.56729,0.0677 1.03858,0 1.12889,-0.0903 1.26436,-0.51929 0.15804,-0.56444 0.29351,-1.98684 0.29351,-2.21262 0,-0.22578 -0.0452,-0.42898 -0.18062,-0.42898 -0.15805,0 -0.2032,0.11289 -0.22578,0.29351 -0.0452,0.36125 -0.24836,0.90311 -0.49671,1.15147 -0.49671,0.51929 -1.26436,0.54187 -2.32552,0.54187 -1.53529,0 -2.30293,-0.11289 -2.6416,-0.40641 -0.42898,-0.36124 -0.42898,-1.58044 -0.42898,-4.04142 z"
             id="text5-3-1-2-9-7-3-7"
             transform="rotate(87.942488)"
             aria-label="l" /><path
             style="font-weight:bold;font-size:22.5778px;font-family:'Trajan Pro';-inkscape-font-specification:'Trajan Pro';text-align:center;letter-spacing:-0.330729px;word-spacing:0.0185208px;text-anchor:middle;fill:#8d8c8d;stroke:#000000;stroke-width:0;stroke-dasharray:2.62897, 2.62897"
             d="m 139.24391,-159.7975 c 0,1.85138 0,3.38667 -0.0903,4.1769 -0.0677,0.56444 -0.18062,0.83538 -0.58702,0.92569 -0.18062,0.0452 -0.4064,0.0677 -0.69991,0.0677 -0.24836,0 -0.31609,0.11289 -0.31609,0.2032 0,0.13547 0.13547,0.2032 0.38382,0.2032 0.79023,0 2.14489,-0.0677 2.59645,-0.0677 0.54187,0 1.89654,0.0677 3.20605,0.0677 0.22578,0 0.38382,-0.0677 0.38382,-0.2032 0,-0.0903 -0.0903,-0.2032 -0.31609,-0.2032 -0.29351,0 -0.74507,-0.0226 -1.016,-0.0677 -0.58702,-0.0903 -0.72249,-0.38383 -0.79022,-0.90312 -0.0903,-0.8128 -0.0903,-2.34809 -0.0903,-4.19947 v -3.38667 c 0,-2.91253 0,-3.4544 0.0452,-4.064 0.0452,-0.67733 0.2032,-0.94827 0.74507,-1.03858 0.22578,-0.0452 0.38382,-0.0677 0.58702,-0.0677 0.2032,0 0.31609,-0.0452 0.31609,-0.22578 0,-0.11289 -0.15804,-0.15805 -0.4064,-0.15805 -0.76764,0 -2.05458,0.0452 -2.55129,0.0452 -0.56445,0 -1.91911,-0.0452 -2.66418,-0.0452 -0.31609,0 -0.47413,0.0452 -0.47413,0.15805 0,0.18062 0.11288,0.22578 0.31608,0.22578 0.24836,0 0.49672,0.0226 0.72249,0.0903 0.42898,0.13546 0.63218,0.36124 0.67734,1.016 0.0226,0.6096 0.0226,1.15147 0.0226,4.064 z"
             id="text5-3-1-2-9-4-7"
             transform="rotate(79.515618)"
             aria-label="i" /><path
             style="font-weight:bold;font-size:22.5778px;font-family:'Trajan Pro';-inkscape-font-specification:'Trajan Pro';text-align:center;letter-spacing:-0.330729px;word-spacing:0.0185208px;text-anchor:middle;fill:#8d8c8d;stroke:#000000;stroke-width:0;stroke-dasharray:2.62897, 2.62897"
             d="m 147.08857,-135.9124 c 0,1.76107 0,3.27379 -0.0903,4.08659 -0.0677,0.56444 -0.18063,0.92569 -0.58703,1.016 -0.18062,0.0452 -0.4064,0.0677 -0.69991,0.0677 -0.24836,0 -0.31609,0.11289 -0.31609,0.2032 0,0.13547 0.13547,0.2032 0.38382,0.2032 0.79023,0 2.05458,-0.0677 2.43841,-0.0677 0.29351,0 1.94169,0.0677 3.09316,0.0677 0.24835,0 0.4064,-0.0677 0.4064,-0.2032 0,-0.0903 -0.0903,-0.2032 -0.24836,-0.2032 -0.24836,0 -0.67733,-0.0226 -0.97085,-0.0677 -0.6096,-0.0903 -0.69991,-0.45156 -0.76764,-1.016 -0.0903,-0.8128 -0.11289,-2.30294 -0.11289,-4.08659 v -0.27093 c 0,-0.11289 0.0677,-0.15804 0.15804,-0.15804 l 1.78365,0.0452 c 0.13547,0 0.24836,0.0226 0.36125,0.13547 0.24835,0.29351 1.08373,1.58044 1.87395,2.61902 1.10632,1.49014 1.85138,2.39325 2.70934,2.82223 0.51929,0.27093 1.06116,0.38382 2.16747,0.38382 h 1.89653 c 0.24836,0 0.38383,-0.0452 0.38383,-0.2032 0,-0.0903 -0.0903,-0.2032 -0.24836,-0.2032 -0.15804,0 -0.27093,0 -0.47413,-0.0452 -0.31609,-0.0677 -1.016,-0.15805 -2.12232,-1.26436 -1.19662,-1.19662 -2.59644,-2.93512 -4.35751,-5.10258 1.94169,-1.55787 2.75449,-2.82223 2.75449,-4.24463 0,-1.28694 -0.83538,-2.25778 -1.39982,-2.6416 -1.06116,-0.69992 -2.50614,-0.8128 -3.7705,-0.8128 -0.6096,0 -2.41582,0.0451 -3.09316,0.0451 -0.4064,0 -1.67075,-0.0451 -2.70933,-0.0451 -0.29351,0 -0.45156,0.0451 -0.45156,0.18062 0,0.13546 0.13547,0.2032 0.33867,0.2032 0.29351,0 0.63218,0.0226 0.79022,0.0677 0.63218,0.18062 0.8128,0.38382 0.85796,1.03858 0.0226,0.6096 0.0226,1.15147 0.0226,4.064 z m 2.52871,-7.60871 c 0,-0.15805 0.0452,-0.22578 0.18062,-0.27094 0.2032,-0.0452 0.67734,-0.0677 1.17405,-0.0677 1.17404,0 3.02542,0.69991 3.02542,3.40925 0,1.58044 -0.67733,2.41582 -1.28693,2.8448 -0.33867,0.24836 -0.6096,0.31609 -1.39982,0.31609 -0.49672,0 -1.08374,-0.0452 -1.51272,-0.18062 -0.13546,-0.0677 -0.18062,-0.13547 -0.18062,-0.33867 z"
             id="text5-3-1-6-4-1-3-0-5-4-8-8"
             transform="rotate(70.167565)"
             aria-label="r" /><path
             style="font-weight:bold;font-size:22.5778px;font-family:'Trajan Pro';-inkscape-font-specification:'Trajan Pro';text-align:center;letter-spacing:-0.330729px;word-spacing:0.0185208px;text-anchor:middle;fill:#8d8c8d;stroke:#000000;stroke-width:0;stroke-dasharray:2.62897, 2.62897"
             d="m 154.03857,-108.71222 c 0,1.76107 0,3.27378 -0.0903,4.08658 -0.0677,0.56444 -0.18063,0.92569 -0.58703,1.016 -0.18062,0.0452 -0.4064,0.0677 -0.69991,0.0677 -0.24835,0 -0.31609,0.11289 -0.31609,0.2032 0,0.13547 0.13547,0.2032 0.38382,0.2032 0.4064,0 0.90312,-0.0226 1.37725,-0.0452 0.47413,0 0.90311,-0.0226 1.12889,-0.0226 0.31609,0 1.016,0.0226 1.69334,0.0452 0.67733,0.0451 1.35466,0.0677 1.58044,0.0677 3.65761,0 5.28321,-2.12231 5.28321,-4.17689 0,-2.25778 -2.03201,-3.63503 -3.65761,-4.15432 1.12889,-0.72249 2.23521,-1.87396 2.23521,-3.36409 0,-1.016 -0.63218,-2.86738 -4.22205,-2.86738 -0.67734,0 -1.98685,0.0452 -2.98027,0.0452 -0.38383,0 -1.64818,-0.0452 -2.68676,-0.0452 -0.29351,0 -0.45156,0.0452 -0.45156,0.18062 0,0.13547 0.13547,0.2032 0.33867,0.2032 0.29351,0 0.63218,0.0226 0.79022,0.0677 0.63218,0.18063 0.8128,0.38383 0.85796,1.03858 0.0226,0.6096 0.0226,1.15147 0.0226,4.06401 z m 2.57387,-7.69903 c 0,-0.2032 0.0452,-0.29351 0.18062,-0.31609 0.2032,-0.0452 0.58702,-0.0452 0.85795,-0.0452 1.71592,0 2.48356,1.60303 2.48356,2.88996 0,0.92569 -0.38382,1.6256 -0.90311,2.032 -0.33867,0.27094 -0.90311,0.33867 -1.55787,0.33867 -0.45155,0 -0.74506,-0.0226 -0.92569,-0.0677 -0.0677,-0.0226 -0.13546,-0.0452 -0.13546,-0.2032 z m 0,5.91538 c 0,-0.11289 0.0452,-0.13547 0.11289,-0.13547 h 0.85795 c 0.76765,0 1.30951,0.2032 1.71591,0.49672 1.49014,1.016 1.87396,2.52871 1.87396,3.40924 0,2.12232 -1.37724,2.70934 -2.4384,2.70934 -0.45156,0 -0.90311,-0.0226 -1.4224,-0.22578 -0.63218,-0.24835 -0.69991,-0.63218 -0.69991,-1.89653 z"
             id="text5-3-1-6-4-1-3-0-5-4-8"
             transform="rotate(60.238436)"
             aria-label="b" /><path
             style="font-weight:bold;font-size:22.5778px;font-family:'Trajan Pro';-inkscape-font-specification:'Trajan Pro';text-align:center;letter-spacing:-0.330729px;word-spacing:0.0185208px;text-anchor:middle;fill:#8d8c8d;stroke:#000000;stroke-width:0;stroke-dasharray:2.62897, 2.62897"
             d="m 158.83777,-70.963025 c 5.12516,0 8.33121,-3.454403 8.33121,-7.857074 0,-4.402671 -3.11574,-7.179741 -8.12801,-7.179741 -6.02827,0 -8.33121,4.244627 -8.33121,7.518408 0,3.409248 2.34809,7.518407 8.12801,7.518407 z m 0.8128,-1.038578 c -3.74791,0 -6.00569,-3.115737 -6.00569,-7.066852 0,-4.741338 2.59644,-5.915384 4.80907,-5.915384 3.20605,0 5.75734,2.619025 5.75734,6.863652 0,5.463827 -3.1609,6.118584 -4.56072,6.118584 z"
             id="text5-3-1-6-4-1-3-0-5-4"
             transform="rotate(49.029848)"
             aria-label="o" /><path
             style="font-weight:bold;font-size:22.5778px;font-family:'Trajan Pro';-inkscape-font-specification:'Trajan Pro';text-align:center;letter-spacing:-0.330729px;word-spacing:0.0185208px;text-anchor:middle;fill:#8d8c8d;stroke:#000000;stroke-width:0;stroke-dasharray:2.62897, 2.62897"
             d="m 147.68265,-19.995522 c 0,2.077157 0,3.860803 -0.11289,4.809071 -0.0903,0.654756 -0.2032,1.151468 -0.65476,1.241779 -0.2032,0.04516 -0.47413,0.09031 -0.8128,0.09031 -0.27093,0 -0.36124,0.06773 -0.36124,0.180623 0,0.158044 0.15804,0.225778 0.45155,0.225778 0.45156,0 1.03858,-0.04516 1.55787,-0.04516 0.54187,-0.02258 1.03858,-0.02258 1.28694,-0.02258 0.56444,0 1.35467,0.06773 2.21262,0.135467 0.85796,0.06773 1.78365,0.135467 2.59645,0.135467 4.17689,0 6.52498,-1.603024 7.56356,-2.664181 1.26436,-1.286934 2.46098,-3.454403 2.46098,-6.299206 0,-2.686758 -1.06115,-4.560716 -2.19004,-5.734761 -2.46098,-2.57387 -6.23148,-2.57387 -9.0537,-2.57387 -1.35467,0 -2.77707,0.06773 -3.47698,0.06773 -0.63218,0 -2.05458,-0.06773 -3.25121,-0.06773 -0.33866,0 -0.49671,0.04516 -0.49671,0.203201 0,0.158044 0.13547,0.2032 0.38382,0.2032 0.31609,0 0.69992,0.02258 0.88054,0.06773 0.74507,0.158045 0.92569,0.51929 0.97084,1.286935 0.0452,0.722489 0.0452,1.354668 0.0452,4.786494 z m 2.82222,-4.334938 c 0,-1.783646 0,-3.747915 0.0226,-4.51556 0,-0.248356 0.0677,-0.361245 0.27094,-0.451556 0.18062,-0.09031 1.016,-0.158045 1.46755,-0.158045 1.76107,0 4.33494,0.270934 6.4121,2.25778 0.97084,0.92569 2.16747,2.77707 2.16747,5.64445 0,2.325514 -0.45156,4.380094 -1.89654,5.621873 -1.35467,1.174045 -2.88996,1.625601 -5.19289,1.625601 -1.78365,0 -2.66418,-0.474134 -2.95769,-0.903112 -0.18063,-0.248356 -0.22578,-1.151468 -0.24836,-1.715913 -0.0226,-0.428978 -0.0452,-2.167468 -0.0452,-4.560715 z"
             id="text5-3-1-6-4-1-3-0-5"
             transform="rotate(28.412919)"
             aria-label="D" /></g><g
           id="g6"><path
             style="font-weight:bold;font-size:22.5778px;font-family:'Trajan Pro';-inkscape-font-specification:'Trajan Pro';text-align:center;letter-spacing:-0.330729px;word-spacing:0.0185208px;text-anchor:middle;fill:#8d8c8d;stroke:#000000;stroke-width:0;stroke-dasharray:2.62897, 2.62897"
             d="m 128.23184,26.00951 c 0.0903,0 0.15804,0.02258 0.2032,0.135467 l 1.53529,3.860804 c 0.0903,0.225778 -0.0452,0.4064 -0.18063,0.428978 -0.2032,0.02258 -0.24835,0.09031 -0.24835,0.2032 0,0.135467 0.22578,0.135467 0.58702,0.158045 1.67076,0.04516 3.11574,0.04516 3.81565,0.04516 0.74507,0 0.85796,-0.04516 0.85796,-0.2032 0,-0.135467 -0.0903,-0.2032 -0.27094,-0.2032 -0.22578,0 -0.45155,-0.02258 -0.74506,-0.06773 -0.36125,-0.06773 -0.92569,-0.31609 -1.69334,-2.05458 -1.26436,-2.912537 -4.58329,-10.769611 -5.05743,-11.830768 -0.2032,-0.428978 -0.29351,-0.6096 -0.58702,-0.6096 -0.2032,0 -0.36124,0.225778 -0.58702,0.767645 l -5.1929,12.079123 c -0.4064,0.970846 -0.74506,1.557868 -1.64818,1.693335 -0.18062,0 -0.4064,0.02258 -0.58702,0.02258 -0.15804,0 -0.22578,0.09031 -0.22578,0.2032 0,0.158045 0.11289,0.2032 0.36125,0.2032 1.03858,0 2.09973,-0.06773 2.30293,-0.06773 0.63218,0 1.55787,0.06773 2.21263,0.06773 0.2032,0 0.31609,-0.04516 0.31609,-0.2032 0,-0.112889 -0.0452,-0.2032 -0.29351,-0.2032 h -0.29352 c -0.6096,0 -0.79022,-0.2032 -0.79022,-0.541867 0,-0.225778 0.0903,-0.699912 0.29351,-1.174046 l 1.06116,-2.573869 c 0.0451,-0.112889 0.0677,-0.135467 0.18062,-0.135467 z m -4.26721,-1.061157 c -0.0677,0 -0.11289,-0.04516 -0.0677,-0.135466 l 1.91911,-4.854228 c 0.0226,-0.06773 0.0452,-0.180622 0.11289,-0.180622 0.0452,0 0.0677,0.112889 0.0903,0.180622 l 1.87396,4.876805 c 0.0226,0.06773 0,0.112889 -0.0903,0.112889 z"
             id="text5-3-1-6-4-1-3-0"
             transform="rotate(10.662383)"
             aria-label="a" /><path
             style="font-weight:bold;font-size:22.5778px;font-family:'Trajan Pro';-inkscape-font-specification:'Trajan Pro';text-align:center;letter-spacing:-0.330729px;word-spacing:0.0185208px;text-anchor:middle;fill:#8d8c8d;stroke:#000000;stroke-width:0;stroke-dasharray:2.62897, 2.62897"
             d="m 107.8634,45.766143 c 0,3.770493 0.0226,5.667028 -1.49013,7.134585 -0.38382,0.383822 -0.67733,0.609601 -0.94827,0.745067 -0.33866,0.158045 -0.42898,0.248356 -0.42898,0.338667 0,0.09031 0.0677,0.180623 0.15805,0.180623 0.0903,0 0.27093,-0.02258 0.4064,-0.09031 0.42898,-0.203201 0.74507,-0.361245 0.99342,-0.496712 1.91912,-1.12889 3.13832,-2.483558 3.56729,-3.657604 0.40641,-1.083734 0.47414,-2.302935 0.47414,-3.38667 0,-0.970845 -0.0677,-1.896535 -0.0677,-2.709336 V 40.25716 c 0,-2.912536 0,-3.454403 0.0451,-4.064004 0.0452,-0.677334 0.2032,-0.948267 0.74507,-1.038579 0.22578,-0.04516 0.36124,-0.06773 0.56444,-0.06773 0.24836,0 0.36125,-0.06773 0.36125,-0.2032 0,-0.135467 -0.13547,-0.180623 -0.4064,-0.180623 -0.79023,0 -2.05458,0.04516 -2.52872,0.04516 -0.51929,0 -1.96426,-0.04516 -3.00284,-0.04516 -0.29351,0 -0.45156,0.04516 -0.45156,0.180623 0,0.135467 0.13547,0.2032 0.33867,0.2032 0.29351,0 0.63218,0.02258 0.79022,0.06773 0.63218,0.180623 0.8128,0.383823 0.85796,1.038579 0.0226,0.609601 0.0226,1.151468 0.0226,4.064004 z"
             id="text5-3-0-7-3-1"
             transform="rotate(1.7304662)"
             aria-label="j" /><path
             style="font-weight:bold;font-size:22.5778px;font-family:'Trajan Pro';-inkscape-font-specification:'Trajan Pro';text-align:center;letter-spacing:-0.330729px;word-spacing:0.0185208px;text-anchor:middle;fill:#8d8c8d;stroke:#000000;stroke-width:0;stroke-dasharray:2.62897, 2.62897"
             d="m 84.922978,56.382206 c 0,1.761069 0,3.273781 -0.09031,4.086582 -0.06773,0.564445 -0.180622,0.92569 -0.587023,1.016001 -0.180622,0.04516 -0.4064,0.06773 -0.699912,0.06773 -0.248355,0 -0.316089,0.112889 -0.316089,0.2032 0,0.135467 0.135467,0.2032 0.383823,0.2032 0.790223,0 2.05458,-0.06773 2.438402,-0.06773 0.293512,0 1.941691,0.06773 3.093159,0.06773 0.248356,0 0.4064,-0.06773 0.4064,-0.2032 0,-0.09031 -0.09031,-0.2032 -0.248355,-0.2032 -0.248356,0 -0.677334,-0.02258 -0.970846,-0.06773 -0.609601,-0.09031 -0.699912,-0.451556 -0.767645,-1.016001 -0.09031,-0.812801 -0.112889,-2.302936 -0.112889,-4.086582 v -0.270933 c 0,-0.112889 0.06773,-0.158045 0.158044,-0.158045 l 1.783647,0.04516 c 0.135467,0 0.248356,0.02258 0.361245,0.135466 0.248355,0.293512 1.083734,1.580446 1.873957,2.619025 1.106312,1.490135 1.85138,2.393247 2.709336,2.822225 0.51929,0.270934 1.061157,0.383823 2.167469,0.383823 h 1.896535 c 0.248356,0 0.383823,-0.04516 0.383823,-0.2032 0,-0.09031 -0.09031,-0.2032 -0.248356,-0.2032 -0.158045,0 -0.270934,0 -0.474134,-0.04516 -0.316089,-0.06773 -1.016001,-0.158045 -2.122313,-1.264357 -1.196623,-1.196623 -2.596447,-2.935114 -4.357516,-5.102583 1.941691,-1.557868 2.754492,-2.822225 2.754492,-4.244626 0,-1.286935 -0.835379,-2.25778 -1.399824,-2.641603 -1.061156,-0.699912 -2.506135,-0.812801 -3.770492,-0.812801 -0.609601,0 -2.415825,0.04516 -3.093159,0.04516 -0.4064,0 -1.670757,-0.04516 -2.709336,-0.04516 -0.293511,0 -0.451556,0.04516 -0.451556,0.180623 0,0.135466 0.135467,0.2032 0.338667,0.2032 0.293511,0 0.632178,0.02258 0.790223,0.06773 0.632178,0.180623 0.812801,0.383823 0.857956,1.038579 0.02258,0.609601 0.02258,1.151468 0.02258,4.064004 z m 2.528714,-7.608719 c 0,-0.158044 0.04516,-0.225778 0.180622,-0.270933 0.2032,-0.04516 0.677334,-0.06773 1.174046,-0.06773 1.174046,0 3.025425,0.699912 3.025425,3.409248 0,1.580446 -0.677334,2.415825 -1.286934,2.844803 -0.338667,0.248356 -0.609601,0.316089 -1.399824,0.316089 -0.496712,0 -1.083734,-0.04515 -1.512713,-0.180622 -0.135467,-0.06773 -0.180622,-0.135467 -0.180622,-0.338667 z"
             id="text5-3-1-6-4-1-3"
             transform="rotate(-5.6269392)"
             aria-label="r" /><path
             style="font-weight:bold;font-size:22.5778px;font-family:'Trajan Pro';-inkscape-font-specification:'Trajan Pro';text-align:center;letter-spacing:-0.330729px;word-spacing:0.0185208px;text-anchor:middle;fill:#8d8c8d;stroke:#000000;stroke-width:0;stroke-dasharray:2.62897, 2.62897"
             d="m 52.880723,70.715337 c 0,2.777069 0.790223,4.19947 1.806224,5.080005 1.44498,1.264357 3.499559,1.309512 4.538138,1.309512 1.286935,0 2.799648,-0.2032 4.199471,-1.377246 1.670758,-1.377246 1.896536,-3.635026 1.896536,-5.779917 v -2.05458 c 0,-2.912536 0.02258,-3.454403 0.04516,-4.064004 0.04516,-0.677334 0.180623,-0.948267 0.72249,-1.038579 0.248356,-0.04516 0.361245,-0.06773 0.587023,-0.06773 0.225778,0 0.338667,-0.06773 0.338667,-0.2032 0,-0.135467 -0.135467,-0.180623 -0.406401,-0.180623 -0.767645,0 -2.099735,0.04516 -2.325513,0.04516 -0.02258,0 -1.354668,-0.04516 -2.370669,-0.04516 -0.270934,0 -0.406401,0.04516 -0.406401,0.180623 0,0.135467 0.112889,0.2032 0.338667,0.2032 0.225778,0 0.564445,0.02258 0.72249,0.06773 0.632178,0.180623 0.790223,0.383823 0.835378,1.038579 0.02258,0.609601 0.04516,1.151468 0.04516,4.064004 v 2.415825 c 0,1.964269 -0.04516,3.635026 -1.151468,4.673605 -0.790223,0.767645 -1.806224,1.016001 -2.66418,1.016001 -0.677334,0 -1.625602,-0.06773 -2.506136,-0.767645 -0.970846,-0.767646 -1.512713,-1.85138 -1.512713,-4.651027 v -2.686759 c 0,-2.912536 0,-3.454403 0.04516,-4.064004 0.04516,-0.677334 0.2032,-0.948267 0.722489,-1.038579 0.248356,-0.04516 0.361245,-0.06773 0.587023,-0.06773 0.2032,0 0.316089,-0.06773 0.316089,-0.2032 0,-0.135467 -0.135466,-0.180623 -0.428978,-0.180623 -0.722489,0 -2.05458,0.04516 -2.551291,0.04516 -0.587023,0 -1.919113,-0.04516 -2.98027,-0.04516 -0.293511,0 -0.428978,0.04516 -0.428978,0.180623 0,0.135467 0.112889,0.2032 0.338667,0.2032 0.270933,0 0.6096,0.02258 0.767645,0.06773 0.632179,0.180623 0.812801,0.361245 0.857957,1.038579 0.04516,0.609601 0.02258,1.151468 0.02258,4.064004 z"
             id="text5-3-1-6-4-1"
             transform="rotate(-17.175624)"
             aria-label="u" /><path
             style="font-weight:bold;font-size:22.5778px;font-family:'Trajan Pro';-inkscape-font-specification:'Trajan Pro';text-align:center;letter-spacing:-0.330729px;word-spacing:0.0185208px;text-anchor:middle;fill:#8d8c8d;stroke:#000000;stroke-width:0;stroke-dasharray:2.62897, 2.62897"
             d="m 28.974144,81.241883 c 0,4.425249 0.02258,6.683029 -1.693335,8.42152 -0.451556,0.451556 -0.790223,0.699912 -1.083735,0.857956 -0.383822,0.203201 -0.496711,0.293512 -0.496711,0.406401 0,0.112889 0.09031,0.180622 0.180622,0.180622 0.112889,0 0.293512,-0.04516 0.451556,-0.135467 0.474134,-0.225778 0.835379,-0.4064 1.12889,-0.587022 2.167469,-1.332091 3.364093,-2.889959 3.838226,-4.267205 0.451556,-1.264357 0.541868,-2.709336 0.541868,-3.996271 0,-1.12889 -0.06773,-2.212624 -0.06773,-3.183469 v -4.176894 c 0,-3.431825 0,-4.064004 0.04516,-4.786493 0.04515,-0.790223 0.225778,-1.174046 0.835378,-1.286935 0.270934,-0.04516 0.406401,-0.06773 0.654757,-0.06773 0.270933,0 0.4064,-0.04516 0.4064,-0.203201 0,-0.158044 -0.158045,-0.2032 -0.474134,-0.2032 -0.880534,0 -2.302935,0.06773 -2.844803,0.06773 -0.587022,0 -2.009424,-0.06773 -3.206047,-0.06773 -0.338667,0 -0.496712,0.04516 -0.496712,0.2032 0,0.158045 0.135467,0.203201 0.383823,0.203201 0.316089,0 0.699911,0.02258 0.880534,0.06773 0.745067,0.158045 0.92569,0.519289 0.970845,1.286935 0.04516,0.722489 0.04516,1.354668 0.04516,4.786493 z"
             id="text5-3-0-7-3"
             transform="rotate(-28.130782)"
             aria-label="J" /></g><g
           id="g5"><path
             style="font-weight:bold;font-size:22.5778px;font-family:'Trajan Pro';-inkscape-font-specification:'Trajan Pro';text-align:center;letter-spacing:-0.330729px;word-spacing:0.0185208px;text-anchor:middle;fill:#8d8c8d;stroke:#000000;stroke-width:0;stroke-dasharray:2.62897, 2.62897"
             d="m -18.239421,81.386875 c 0,1.761069 0,3.273781 -0.09031,4.086582 -0.06773,0.564445 -0.180623,0.92569 -0.587023,1.016001 -0.180623,0.04516 -0.406401,0.06773 -0.699912,0.06773 -0.248356,0 -0.316089,0.112889 -0.316089,0.2032 0,0.135467 0.135467,0.2032 0.383822,0.2032 0.406401,0 0.903112,-0.02258 1.377246,-0.04516 0.474134,0 0.903112,-0.02258 1.12889,-0.02258 0.587023,0 1.332091,0.02258 2.302936,0.04515 0.970845,0.04516 2.167469,0.06773 3.657604,0.06773 0.745067,0 0.92569,0 1.061156,-0.496712 0.1128893,-0.383822 0.2709339,-1.693335 0.2709339,-2.122313 0,-0.2032 -0.022578,-0.451556 -0.1806224,-0.451556 -0.1354665,0 -0.1806225,0.09031 -0.2257775,0.293511 -0.135467,0.790223 -0.361245,1.196624 -0.857957,1.422402 -0.519289,0.225778 -1.354668,0.248356 -1.873957,0.248356 -2.032002,0 -2.641603,-0.293512 -2.686759,-1.603024 -0.02258,-0.564445 0,-2.190047 0,-2.844803 v -1.535291 c 0,-0.112889 0.02258,-0.2032 0.112889,-0.2032 0.496712,0 2.754492,0.04516 3.115737,0.09031 0.745067,0.06773 0.993423,0.361245 1.106312,0.745068 0.04516,0.248356 0.04516,0.496711 0.06773,0.699912 0,0.09031 0.04516,0.158044 0.180623,0.158044 0.180622,0 0.2032,-0.270933 0.2032,-0.428978 0,-0.135467 0.04516,-0.903112 0.09031,-1.286935 0.112889,-0.970845 0.158045,-1.286934 0.158045,-1.399823 0,-0.112889 -0.06773,-0.203201 -0.158045,-0.203201 -0.09031,0 -0.158044,0.112889 -0.316089,0.248356 -0.180622,0.2032 -0.474134,0.248356 -0.948268,0.293512 -0.451556,0.04515 -3.025425,0.04515 -3.476981,0.04515 -0.112889,0 -0.135467,-0.09031 -0.135467,-0.2032 v -4.741338 c 0,-0.112889 0.04516,-0.180622 0.135467,-0.180622 0.406401,0 2.77707,0.04515 3.115737,0.09031 0.993423,0.09031 1.151467,0.361245 1.309512,0.699912 0.112889,0.225778 0.135467,0.564445 0.135467,0.699911 0,0.158045 0.02258,0.248356 0.158044,0.248356 0.158045,0 0.203201,-0.225778 0.225778,-0.316089 0.04516,-0.225778 0.09031,-1.061157 0.112889,-1.264357 0.04516,-0.880534 0.158045,-1.106312 0.158045,-1.241779 0,-0.09031 -0.02258,-0.180622 -0.135467,-0.180622 -0.09031,0 -0.2032,0.06773 -0.316089,0.09031 -0.158045,0.02258 -0.474134,0.09031 -0.835379,0.112889 -0.383822,0.02258 -4.786493,0 -5.418672,0 -0.564445,0 -1.828802,-0.04516 -2.86738,-0.04516 -0.293512,0 -0.451556,0.04516 -0.451556,0.180623 0,0.135466 0.135466,0.2032 0.338667,0.2032 0.293511,0 0.632178,0.02258 0.790223,0.06773 0.632178,0.180623 0.8128,0.383823 0.857956,1.038579 0.02258,0.609601 0.02258,1.151468 0.02258,4.064004 z"
             id="text5-3-0"
             transform="rotate(-45.814774)"
             aria-label="e" /><path
             style="font-weight:bold;font-size:22.5778px;font-family:'Trajan Pro';-inkscape-font-specification:'Trajan Pro';text-align:center;letter-spacing:-0.330729px;word-spacing:0.0185208px;text-anchor:middle;fill:#8d8c8d;stroke:#000000;stroke-width:0;stroke-dasharray:2.62897, 2.62897"
             d="m -48.926268,74.041805 c 0,1.761069 0,3.273782 -0.09031,4.086582 -0.06773,0.564445 -0.180622,0.92569 -0.587023,1.016001 -0.158044,0.04516 -0.4064,0.06773 -0.699912,0.06773 -0.248355,0 -0.316089,0.112889 -0.316089,0.2032 0,0.135467 0.135467,0.2032 0.383823,0.2032 0.790223,0 2.144891,-0.06773 2.596447,-0.06773 0.564445,0 1.896535,0.06773 3.206048,0.06773 0.225778,0 0.383822,-0.06773 0.383822,-0.2032 0,-0.09031 -0.09031,-0.2032 -0.316089,-0.2032 -0.293511,0 -0.745067,-0.02258 -1.016001,-0.06773 -0.587023,-0.09031 -0.699912,-0.451556 -0.767645,-0.993423 -0.09031,-0.835378 -0.112889,-2.348091 -0.112889,-4.10916 v -7.766763 l 2.506136,0.04516 c 1.783646,0.02258 2.302935,0.6096 2.348091,1.106312 l 0.02258,0.2032 c 0.02258,0.293511 0.06773,0.383823 0.225778,0.383823 0.112889,0 0.158044,-0.112889 0.180622,-0.31609 0,-0.496711 0.04516,-1.919113 0.04516,-2.325513 0,-0.293511 -0.02258,-0.4064 -0.158045,-0.4064 -0.06773,0 -0.225778,0.04515 -0.541867,0.09031 -0.293511,0.04515 -0.72249,0.09031 -1.354668,0.09031 h -8.060275 c -0.654756,0 -1.399824,-0.02258 -1.986846,-0.09031 -0.496712,-0.06773 -0.699912,-0.225778 -0.857957,-0.225778 -0.112889,0 -0.180622,0.112889 -0.225778,0.361245 -0.04515,0.158044 -0.428978,2.009424 -0.428978,2.325513 0,0.2032 0.04515,0.316089 0.180622,0.316089 0.135467,0 0.180623,-0.09031 0.225778,-0.248356 0.04516,-0.135466 0.135467,-0.383822 0.338667,-0.654756 0.293512,-0.428978 0.767646,-0.564445 1.919113,-0.587023 l 2.957692,-0.06773 z"
             id="text5-3-0-7"
             transform="rotate(-58.788009)"
             aria-label="t" /><path
             style="font-weight:bold;font-size:22.5778px;font-family:'Trajan Pro';-inkscape-font-specification:'Trajan Pro';text-align:center;letter-spacing:-0.330729px;word-spacing:0.0185208px;text-anchor:middle;fill:#8d8c8d;stroke:#000000;stroke-width:0;stroke-dasharray:2.62897, 2.62897"
             d="m -77.548479,65.640209 c 1.061157,0 2.370669,-0.112889 3.318937,-0.790223 1.444979,-1.016001 1.986846,-2.167469 1.986846,-3.589871 0,-1.73849 -0.8128,-3.206047 -3.431825,-4.651027 l -0.812801,-0.451556 c -1.783646,-0.993423 -2.099736,-1.670757 -2.099736,-2.528713 0,-1.309513 1.286935,-2.05458 2.709337,-2.05458 1.286934,0 1.919113,0.541867 2.212624,0.903112 0.428978,0.496712 0.519289,1.083734 0.519289,1.264357 0,0.225778 0.06773,0.338667 0.203201,0.338667 0.158044,0 0.248355,-0.2032 0.248355,-0.609601 0,-1.512712 0.06773,-2.05458 0.06773,-2.302936 0,-0.135466 -0.09031,-0.2032 -0.270934,-0.248355 -0.519289,-0.135467 -1.53529,-0.31609 -2.822225,-0.31609 -2.754492,0 -5.012272,1.512713 -5.012272,3.860804 0,1.693335 0.767646,2.98027 3.115737,4.357516 l 1.151468,0.677334 c 1.761068,1.038579 1.964268,1.873957 1.964268,2.709336 0,1.354668 -1.038578,2.438403 -2.754491,2.438403 -1.241779,0 -2.731914,-0.474134 -3.160892,-1.896536 -0.112889,-0.338667 -0.180623,-0.745067 -0.180623,-0.993423 0,-0.135467 -0.02258,-0.316089 -0.2032,-0.316089 -0.158045,0 -0.248356,0.2032 -0.248356,0.496711 -0.02258,0.31609 -0.112889,1.512713 -0.112889,2.551292 0,0.428978 0.06773,0.519289 0.383823,0.654756 0.857956,0.383823 2.077157,0.496712 3.228625,0.496712 z m -2.05458,-19.123397 c -0.06773,0.06773 -0.112889,0.158044 -0.112889,0.225778 0,0.06773 0.06773,0.135466 0.31609,0.316089 0.338667,0.248356 2.506136,1.873957 2.686758,2.032002 0.248356,0.180622 0.338667,0.248356 0.4064,0.248356 0.135467,0 0.248356,-0.06773 0.474134,-0.270934 0.316089,-0.270934 2.731914,-2.528714 2.98027,-2.799647 0.135467,-0.135467 0.2032,-0.248356 0.2032,-0.338667 0,-0.135467 -0.09031,-0.225778 -0.2032,-0.225778 -0.112889,0 -0.225778,0.06773 -0.496712,0.293511 -0.632178,0.51929 -1.715913,1.286935 -2.348091,1.670757 -0.112889,0.06773 -0.248356,0.09031 -0.338667,0.09031 -0.09031,0 -0.180622,-0.04516 -0.293511,-0.135467 -0.225778,-0.158045 -1.557869,-1.241779 -1.986847,-1.670757 -0.2032,-0.203201 -0.293511,-0.248356 -0.383823,-0.248356 -0.06773,0 -0.158044,0.06773 -0.248355,0.158044 z"
             id="text5-3-1-2-9-8-5"
             transform="rotate(-71.630194)"
             aria-label="š" /><path
             style="font-weight:bold;font-size:22.5778px;font-family:'Trajan Pro';-inkscape-font-specification:'Trajan Pro';text-align:center;letter-spacing:-0.330729px;word-spacing:0.0185208px;text-anchor:middle;fill:#8d8c8d;stroke:#000000;stroke-width:0;stroke-dasharray:2.62897, 2.62897"
             d="m -97.73831,46.247483 c 0,1.851379 0,3.38667 -0.09031,4.176893 -0.06773,0.564445 -0.180623,0.835378 -0.587023,0.925689 -0.180623,0.04516 -0.406401,0.06773 -0.699912,0.06773 -0.248356,0 -0.316089,0.112889 -0.316089,0.2032 0,0.135467 0.135467,0.2032 0.383822,0.2032 0.790223,0 2.144892,-0.06773 2.596448,-0.06773 0.541867,0 1.896535,0.06773 3.206047,0.06773 0.225778,0 0.383823,-0.06773 0.383823,-0.2032 0,-0.09031 -0.09031,-0.2032 -0.316089,-0.2032 -0.293512,0 -0.745068,-0.02258 -1.016001,-0.06773 -0.587023,-0.09031 -0.72249,-0.383822 -0.790223,-0.903112 -0.09031,-0.8128 -0.09031,-2.348091 -0.09031,-4.19947 v -3.386671 c 0,-2.912536 0,-3.454403 0.04516,-4.064004 0.04516,-0.677334 0.2032,-0.948267 0.745067,-1.038579 0.225778,-0.04516 0.383823,-0.06773 0.587023,-0.06773 0.2032,0 0.316089,-0.04516 0.316089,-0.225778 0,-0.112889 -0.158044,-0.158045 -0.4064,-0.158045 -0.767645,0 -2.05458,0.04516 -2.551291,0.04516 -0.564445,0 -1.919114,-0.04516 -2.664181,-0.04516 -0.316089,0 -0.474134,0.04516 -0.474134,0.158045 0,0.180622 0.112889,0.225778 0.316089,0.225778 0.248356,0 0.496712,0.02258 0.72249,0.09031 0.428978,0.135467 0.632178,0.361245 0.677334,1.016001 0.02258,0.609601 0.02258,1.151468 0.02258,4.064004 z"
             id="text5-3-1-2-9-8"
             transform="rotate(-80.489663)"
             aria-label="i" /><path
             style="font-weight:bold;font-size:22.5778px;font-family:'Trajan Pro';-inkscape-font-specification:'Trajan Pro';text-align:center;letter-spacing:-0.330729px;word-spacing:0.0185208px;text-anchor:middle;fill:#8d8c8d;stroke:#000000;stroke-width:0;stroke-dasharray:2.62897, 2.62897"
             d="m -113.67214,28.038215 c 0,-2.912536 0,-3.454404 0.0452,-4.064004 0.0452,-0.677334 0.2032,-0.948268 0.74506,-1.038579 0.22578,-0.04516 0.54187,-0.06773 0.76765,-0.06773 0.24836,0 0.36124,-0.06773 0.36124,-0.203201 0,-0.135466 -0.13546,-0.180622 -0.42897,-0.180622 -0.76765,0 -2.39325,0.04516 -2.86738,0.04516 -0.54187,0 -1.80623,-0.04516 -2.73192,-0.04516 -0.29351,0 -0.42898,0.04516 -0.42898,0.180622 0,0.135467 0.11289,0.203201 0.33867,0.203201 0.24836,0 0.49671,0.02258 0.65476,0.06773 0.63218,0.180622 0.8128,0.383823 0.85795,1.038579 0.0226,0.6096 0.0226,1.151468 0.0226,4.064004 v 3.38667 c 0,1.761068 0,3.273781 -0.0903,4.086582 -0.0677,0.564445 -0.18062,0.92569 -0.58702,1.016001 -0.18063,0.04516 -0.4064,0.06773 -0.69991,0.06773 -0.24836,0 -0.31609,0.112889 -0.31609,0.203201 0,0.135466 0.13546,0.2032 0.38382,0.2032 0.4064,0 0.90311,-0.02258 1.37724,-0.04516 0.47414,0 0.90312,-0.02258 1.12889,-0.02258 0.81281,0 1.64818,0.02258 2.64161,0.04516 0.99342,0.04516 2.14489,0.06773 3.56729,0.06773 1.03858,0 1.12889,-0.09031 1.26436,-0.519289 0.15804,-0.564445 0.29351,-1.986846 0.29351,-2.212624 0,-0.225778 -0.0452,-0.428979 -0.18062,-0.428979 -0.15805,0 -0.2032,0.112889 -0.22578,0.293512 -0.0452,0.361245 -0.24836,0.903112 -0.49671,1.151468 -0.49672,0.519289 -1.26436,0.541867 -2.32552,0.541867 -1.53529,0 -2.30293,-0.112889 -2.6416,-0.406401 -0.42898,-0.361244 -0.42898,-1.580446 -0.42898,-4.041426 z"
             id="text5-3-1-2-9-7"
             transform="rotate(-88.506425)"
             aria-label="l" /><path
             style="font-weight:bold;font-size:22.5778px;font-family:'Trajan Pro';-inkscape-font-specification:'Trajan Pro';text-align:center;letter-spacing:-0.330729px;word-spacing:0.0185208px;text-anchor:middle;fill:#8d8c8d;stroke:#000000;stroke-width:0;stroke-dasharray:2.62897, 2.62897"
             d="m -129.42298,15.495827 c 0,1.85138 0,3.38667 -0.0903,4.176893 -0.0677,0.564445 -0.18062,0.835379 -0.58702,0.92569 -0.18063,0.04516 -0.4064,0.06773 -0.69992,0.06773 -0.24835,0 -0.31608,0.112889 -0.31608,0.203201 0,0.135466 0.13546,0.2032 0.38382,0.2032 0.79022,0 2.14489,-0.06773 2.59645,-0.06773 0.54186,0 1.89653,0.06773 3.20604,0.06773 0.22578,0 0.38383,-0.06773 0.38383,-0.2032 0,-0.09031 -0.0903,-0.203201 -0.31609,-0.203201 -0.29352,0 -0.74507,-0.02258 -1.016,-0.06773 -0.58703,-0.09031 -0.72249,-0.383823 -0.79023,-0.903112 -0.0903,-0.812801 -0.0903,-2.348091 -0.0903,-4.199471 v -3.38667 c 0,-2.9125365 0,-3.4544037 0.0452,-4.0640043 0.0451,-0.677334 0.2032,-0.9482676 0.74506,-1.0385788 0.22578,-0.045156 0.38383,-0.067733 0.58703,-0.067733 0.2032,0 0.31609,-0.045156 0.31609,-0.225778 0,-0.112889 -0.15805,-0.1580446 -0.4064,-0.1580446 -0.76765,0 -2.05458,0.045156 -2.5513,0.045156 -0.56444,0 -1.91911,-0.045156 -2.66418,-0.045156 -0.31609,0 -0.47413,0.045156 -0.47413,0.1580446 0,0.1806224 0.11289,0.225778 0.31609,0.225778 0.24835,0 0.49671,0.022578 0.72249,0.090311 0.42898,0.1354668 0.63218,0.3612448 0.67733,1.016001 0.0226,0.6096006 0.0226,1.1514678 0.0226,4.0640041 z"
             id="text5-3-1-2-9"
             transform="rotate(-96.105698)"
             aria-label="i" /><path
             style="font-weight:bold;font-size:22.5778px;font-family:'Trajan Pro';-inkscape-font-specification:'Trajan Pro';text-align:center;letter-spacing:-0.330729px;word-spacing:0.0185208px;text-anchor:middle;fill:#8d8c8d;stroke:#000000;stroke-width:0;stroke-dasharray:2.62897, 2.62897"
             d="m -139.6872,-4.2768244 c 1.28693,0 2.79964,-0.112889 3.58987,-0.4289782 0.33866,-0.1354668 0.42897,-0.225778 0.51929,-0.5644451 0.2032,-0.6547562 0.42897,-2.3255134 0.42897,-2.5512914 0,-0.1580446 -0.0903,-0.338667 -0.22577,-0.338667 -0.15805,0 -0.2032,0.090311 -0.24836,0.3838226 -0.0677,0.3612448 -0.33867,0.903112 -0.67733,1.2869346 -0.79023,0.8805342 -1.76107,1.016001 -3.52214,1.016001 -2.66418,0 -6.18632,-2.1674688 -6.18632,-6.7281841 0,-1.873958 0.36125,-3.725338 1.8288,-4.989694 0.90312,-0.767646 2.00943,-1.083735 3.74792,-1.083735 1.8288,0 3.16089,0.474134 3.83822,1.12889 0.49672,0.496712 0.74507,1.174046 0.76765,1.783646 0,0.248356 0.0452,0.406401 0.2032,0.406401 0.18062,0 0.24836,-0.2032 0.27093,-0.474134 0.0226,-0.383823 0.0226,-1.444979 0.0677,-2.077158 0.0451,-0.677334 0.0903,-0.903112 0.0903,-1.061156 0,-0.112889 -0.0677,-0.2032 -0.29351,-0.225778 -0.58703,-0.06773 -1.24178,-0.203201 -1.98685,-0.31609 -0.90311,-0.112889 -1.64818,-0.2032 -2.88996,-0.2032 -2.95769,0 -4.85423,0.767646 -6.2992,2.032002 -1.89654,1.693335 -2.32552,3.951115 -2.32552,5.260628 0,1.85138 0.51929,4.0188485 2.48356,5.6670279 1.80622,1.5127127 4.10916,2.0771577 6.8185,2.0771577 z m -4.49299,-19.1233976 c -0.0677,0.06773 -0.11289,0.158045 -0.11289,0.225778 0,0.06773 0.0677,0.135467 0.31609,0.31609 0.33867,0.248355 2.50614,1.873957 2.68676,2.032002 0.24836,0.180622 0.33867,0.248355 0.4064,0.248355 0.13547,0 0.24836,-0.06773 0.47414,-0.270933 0.31609,-0.270934 2.73191,-2.528714 2.98027,-2.799647 0.13546,-0.135467 0.2032,-0.248356 0.2032,-0.338667 0,-0.135467 -0.0903,-0.225778 -0.2032,-0.225778 -0.11289,0 -0.22578,0.06773 -0.49672,0.293511 -0.63217,0.519289 -1.71591,1.286935 -2.34809,1.670757 -0.11289,0.06773 -0.24835,0.09031 -0.33866,0.09031 -0.0903,0 -0.18063,-0.04516 -0.29352,-0.135466 -0.22577,-0.158045 -1.55786,-1.241779 -1.98684,-1.670758 -0.2032,-0.2032 -0.29351,-0.248355 -0.38382,-0.248355 -0.0677,0 -0.15805,0.06773 -0.24836,0.158044 z"
             id="text5-3-1-2"
             transform="rotate(-107.01468)"
             aria-label="č" /><path
             style="font-weight:bold;font-size:22.5778px;font-family:'Trajan Pro';-inkscape-font-specification:'Trajan Pro';text-align:center;letter-spacing:-0.330729px;word-spacing:0.0185208px;text-anchor:middle;fill:#8d8c8d;stroke:#000000;stroke-width:0;stroke-dasharray:2.62897, 2.62897"
             d="m -155.91825,-55.96199 c 0,2.77707 0.79022,4.199471 1.80622,5.080006 1.44498,1.264356 3.49956,1.309512 4.53814,1.309512 1.28693,0 2.79965,-0.2032 4.19947,-1.377246 1.67076,-1.377246 1.89653,-3.635026 1.89653,-5.779917 v -2.05458 c 0,-2.912536 0.0226,-3.454403 0.0452,-4.064004 0.0452,-0.677334 0.18062,-0.948268 0.72249,-1.038579 0.24836,-0.04516 0.36124,-0.06773 0.58702,-0.06773 0.22578,0 0.33867,-0.06773 0.33867,-0.2032 0,-0.135467 -0.13547,-0.180623 -0.4064,-0.180623 -0.76765,0 -2.09974,0.04516 -2.32551,0.04516 -0.0226,0 -1.35467,-0.04516 -2.37067,-0.04516 -0.27094,0 -0.4064,0.04516 -0.4064,0.180623 0,0.135466 0.11289,0.2032 0.33866,0.2032 0.22578,0 0.56445,0.02258 0.72249,0.06773 0.63218,0.180623 0.79023,0.383823 0.83538,1.038579 0.0226,0.609601 0.0452,1.151468 0.0452,4.064004 v 2.415825 c 0,1.964269 -0.0452,3.635026 -1.15147,4.673605 -0.79022,0.767645 -1.80622,1.016001 -2.66418,1.016001 -0.67734,0 -1.6256,-0.06773 -2.50614,-0.767646 -0.97084,-0.767645 -1.51271,-1.851379 -1.51271,-4.651026 v -2.686759 c 0,-2.912536 0,-3.454403 0.0452,-4.064004 0.0451,-0.677334 0.2032,-0.948268 0.72249,-1.038579 0.24835,-0.04516 0.36124,-0.06773 0.58702,-0.06773 0.2032,0 0.31609,-0.06773 0.31609,-0.2032 0,-0.135467 -0.13547,-0.180623 -0.42898,-0.180623 -0.72249,0 -2.05458,0.04516 -2.55129,0.04516 -0.58702,0 -1.91912,-0.04516 -2.98027,-0.04516 -0.29351,0 -0.42898,0.04516 -0.42898,0.180623 0,0.135466 0.11289,0.2032 0.33867,0.2032 0.27093,0 0.6096,0.02258 0.76764,0.06773 0.63218,0.180623 0.8128,0.361245 0.85796,1.038579 0.0452,0.609601 0.0226,1.151468 0.0226,4.064004 z"
             id="text5-3-1"
             transform="rotate(-124.90759)"
             aria-label="u" /><path
             style="font-weight:bold;font-size:22.5778px;font-family:'Trajan Pro';-inkscape-font-specification:'Trajan Pro';text-align:center;letter-spacing:-0.330729px;word-spacing:0.0185208px;text-anchor:middle;fill:#8d8c8d;stroke:#000000;stroke-width:0;stroke-dasharray:2.62897, 2.62897"
             d="m -149.83739,-94.427135 c 0,1.761068 0,3.273781 -0.0903,4.086582 -0.0677,0.564445 -0.18062,0.92569 -0.58702,1.016001 -0.18062,0.04515 -0.4064,0.06773 -0.69991,0.06773 -0.24836,0 -0.31609,0.112889 -0.31609,0.2032 0,0.135467 0.13546,0.203201 0.38382,0.203201 0.4064,0 0.90311,-0.02258 1.37725,-0.04516 0.47413,0 0.90311,-0.02258 1.12889,-0.02258 0.58702,0 1.33209,0.02258 2.30293,0.04516 0.97085,0.04515 2.16747,0.06773 3.65761,0.06773 0.74506,0 0.92569,0 1.06115,-0.496711 0.11289,-0.383823 0.27094,-1.693336 0.27094,-2.122314 0,-0.2032 -0.0226,-0.451556 -0.18063,-0.451556 -0.13546,0 -0.18062,0.09031 -0.22577,0.293512 -0.13547,0.790223 -0.36125,1.196623 -0.85796,1.422401 -0.51929,0.225778 -1.35467,0.248356 -1.87396,0.248356 -2.032,0 -2.6416,-0.293511 -2.68676,-1.603024 -0.0226,-0.564445 0,-2.190047 0,-2.844803 v -1.53529 c 0,-0.112889 0.0226,-0.2032 0.11289,-0.2032 0.49671,0 2.75449,0.04516 3.11574,0.09031 0.74507,0.06773 0.99342,0.361245 1.10631,0.745067 0.0452,0.248356 0.0452,0.496712 0.0677,0.699912 0,0.09031 0.0452,0.158045 0.18063,0.158045 0.18062,0 0.2032,-0.270934 0.2032,-0.428979 0,-0.135466 0.0452,-0.903112 0.0903,-1.286934 0.11289,-0.970846 0.15804,-1.286935 0.15804,-1.399824 0,-0.112889 -0.0677,-0.2032 -0.15804,-0.2032 -0.0903,0 -0.15805,0.112889 -0.31609,0.248356 -0.18062,0.2032 -0.47413,0.248355 -0.94827,0.293511 -0.45155,0.04516 -3.02542,0.04516 -3.47698,0.04516 -0.11289,0 -0.13547,-0.09031 -0.13547,-0.203201 v -4.741343 c 0,-0.11289 0.0452,-0.18062 0.13547,-0.18062 0.4064,0 2.77707,0.0451 3.11574,0.0903 0.99342,0.0903 1.15146,0.36124 1.30951,0.69991 0.11289,0.22578 0.13547,0.56445 0.13547,0.69991 0,0.15805 0.0226,0.24836 0.15804,0.24836 0.15804,0 0.2032,-0.22578 0.22578,-0.31609 0.0452,-0.22578 0.0903,-1.06116 0.11289,-1.26436 0.0452,-0.88052 0.15804,-1.1063 0.15804,-1.24178 0,-0.0903 -0.0226,-0.18062 -0.13546,-0.18062 -0.0903,0 -0.20321,0.0677 -0.31609,0.0903 -0.15805,0.0226 -0.47414,0.0903 -0.83538,0.11289 -0.38383,0.0226 -4.7865,0 -5.41867,0 -0.56445,0 -1.82881,-0.0452 -2.86739,-0.0452 -0.29351,0 -0.45155,0.0452 -0.45155,0.18062 0,0.13546 0.13547,0.2032 0.33867,0.2032 0.29351,0 0.63217,0.0226 0.79022,0.0677 0.63218,0.18062 0.8128,0.38382 0.85795,1.03858 0.0226,0.6096 0.0226,1.15147 0.0226,4.06401 z"
             id="text5-3"
             transform="rotate(-140.02101)"
             aria-label="e" /><path
             style="font-weight:bold;font-size:22.5778px;font-family:'Trajan Pro';-inkscape-font-specification:'Trajan Pro';text-align:center;letter-spacing:-0.330729px;word-spacing:0.0185208px;text-anchor:middle;fill:#8d8c8d;stroke:#000000;stroke-width:0;stroke-dasharray:2.62897, 2.62897"
             d="m -141.0768,-117.23514 c 0.38382,0.90312 0.54187,1.15147 0.8128,1.15147 0.27093,0 0.45156,-0.29351 0.94827,-1.39982 0.45155,-0.97085 1.37724,-3.07058 2.6416,-5.87023 1.08373,-2.34809 1.60302,-3.38667 2.39325,-5.19289 0.51929,-1.21921 0.79022,-1.51272 1.03858,-1.69334 0.33866,-0.24836 0.76764,-0.22578 0.97084,-0.22578 0.2032,0 0.31609,-0.0677 0.31609,-0.2032 0,-0.13546 -0.15804,-0.18062 -0.4064,-0.18062 -0.6096,0 -1.53529,0.0452 -1.87396,0.0452 -0.24835,0 -1.12889,-0.0452 -2.12231,-0.0452 -0.38382,0 -0.56445,0.0452 -0.56445,0.18062 0,0.13547 0.15805,0.2032 0.33867,0.2032 0.24836,0 0.56445,0.0226 0.79022,0.0903 0.18063,0.0677 0.27094,0.13547 0.27094,0.33867 0,0.15805 -0.0903,0.45156 -0.18062,0.69991 -0.47414,1.26436 -3.02543,7.45068 -3.88339,9.43752 h -0.0677 l -3.34151,-8.60214 c -0.27094,-0.67733 -0.45156,-1.19662 -0.45156,-1.44498 0,-0.18062 0.0677,-0.29351 0.2032,-0.38382 0.15804,-0.11289 0.45156,-0.13547 0.76765,-0.13547 0.18062,0 0.31608,-0.0677 0.31608,-0.2032 0,-0.13546 -0.22577,-0.18062 -0.47413,-0.18062 -0.99342,0 -2.032,0.0452 -2.52871,0.0452 -0.69991,0 -1.8288,-0.0452 -2.88996,-0.0452 -0.29351,0 -0.49671,0.0226 -0.49671,0.18062 0,0.11289 0.0452,0.2032 0.22577,0.2032 0.15805,0 0.47414,0 0.76765,0.0677 0.72249,0.18062 1.016,0.36124 1.46756,1.4224 z"
             id="text5"
             transform="rotate(-151.18675)"
             aria-label="v" /><path
             style="font-weight:bold;font-size:22.5778px;font-family:'Trajan Pro';-inkscape-font-specification:'Trajan Pro';text-align:center;letter-spacing:-0.330729px;word-spacing:0.0185208px;text-anchor:middle;fill:#8d8c8d;stroke:#000000;stroke-width:0;stroke-dasharray:2.62897, 2.62897"
             d="m -126.86574,-144.74331 c 1.19662,0 2.46098,-0.2032 3.58987,-0.92569 1.6256,-1.06116 2.12231,-2.61903 2.12231,-3.92854 0,-2.14489 -0.97084,-3.70276 -3.70276,-5.75734 l -0.63218,-0.47413 c -1.87395,-1.42241 -2.39324,-2.21263 -2.39324,-3.25121 0,-1.35467 1.016,-2.32551 2.68676,-2.32551 1.46755,0 2.12231,0.67733 2.46098,1.10631 0.47413,0.58702 0.58702,1.28694 0.58702,1.49014 0,0.27093 0.0677,0.4064 0.22578,0.4064 0.18062,0 0.24835,-0.18063 0.24835,-0.67734 0,-1.76107 0.0903,-2.41582 0.0903,-2.70933 0,-0.15805 -0.11289,-0.22578 -0.31609,-0.27094 -0.58702,-0.15804 -1.53529,-0.38382 -3.00284,-0.38382 -3.13832,0 -5.21548,1.78365 -5.21548,4.2672 0,1.82881 0.85796,3.40925 3.34152,5.35094 l 1.03858,0.8128 c 1.87396,1.46756 2.21262,2.50614 2.21262,3.61245 0,1.19663 -0.99342,2.57387 -3.02542,2.57387 -1.39983,0 -2.73192,-0.6096 -3.22863,-2.28036 -0.11289,-0.38382 -0.2032,-0.85795 -0.2032,-1.15146 0,-0.18063 -0.0226,-0.38383 -0.22578,-0.38383 -0.18062,0 -0.24835,0.24836 -0.27093,0.58703 -0.0226,0.36124 -0.11289,1.71591 -0.11289,2.95769 0,0.49671 0.0677,0.6096 0.42898,0.76764 0.97084,0.42898 1.98685,0.58703 3.29636,0.58703 z"
             id="text4"
             transform="rotate(-163.54649)"
             aria-label="S" /></g></g><g
         id="layer1"
         transform="translate(-16.393662,-37.468924)"><path
           style="display:inline;fill:#bda402"
           d="m 99.561562,215.64027 c -2.691227,0.003 -2.881241,-1.59787 -2.74456,-5.43689 0.161079,-4.52433 0.207113,5.0627 0.893168,2.50069 0.01451,-2.82408 -0.247155,-5.6364 -0.426634,-8.45222 -0.219477,3.58521 -0.878327,1.89357 -0.595903,-0.8725 -0.46953,-5.78461 1.351089,-11.44638 0.651582,-17.2267 -0.197774,-2.70682 0.0046,-5.21589 0.379891,-7.78761 0.05456,-0.37386 0.104447,-0.89175 0.270609,-1.10069 0.125048,-0.15724 0.708509,-0.11938 1.065279,-0.1086 4.599136,0.13903 8.224586,0.52725 12.348246,-0.31756 2.08808,-1.28633 4.31101,-0.53486 6.49349,-1.10781 10.01352,-2.46646 14.80351,-7.52338 22.63094,-13.41494 0.70211,0.34336 -4.47445,4.78635 -1.03719,1.69522 1.59403,-1.67405 3.87935,-3.25135 4.53563,-5.46418 -3.43845,4.25275 3.18294,-5.87856 4.99823,-7.71253 1.88658,-1.90599 3.34842,-8.66064 2.95085,-11.01192 -0.24374,-1.44154 1.66242,-5.10314 1.61166,-8.40461 -0.0141,-0.91867 -0.0893,-2.56716 -0.0384,-4.1177 0.0971,-2.9616 0.38765,-5.75226 0.57226,-3.72563 0.0782,0.85862 0.17953,2.02154 0.15087,3.36378 -0.063,2.94729 -0.36827,6.25952 -0.20602,5.58349 0.99456,-4.14388 -0.21368,3.89423 -0.0797,3.59399 0.99949,-2.24075 1.83482,-5.60581 1.68026,-11.3648 0.24725,-4.63267 -0.70104,-9.20316 -1.61206,-13.72155 -1.23363,-0.33162 -1.52647,-4.92405 -2.02258,-3.40482 1.05394,3.44063 -0.93169,-1.42911 -1.27179,-2.58856 -2.04209,-6.050404 -6.48013,-10.750774 -10.41639,-15.67215 -2.31126,-2.889684 -5.06229,-5.422767 -8.20512,-7.20141 -2.8644,-1.084585 -2.50687,0.01177 -4.70674,-1.37186 -4.93822,-2.738692 -10.32108,-4.441931 -15.91909,-5.199276 -1.26648,-0.17134 -5.76788,-0.600363 -4.79216,-0.763601 2.05324,-0.358301 6.19893,-0.74143 2.01831,-1.113106 -2.56807,-0.111306 -5.41201,-0.291684 -7.64996,-0.07346 -1.099786,0.107243 7.16183,0.418533 2.06596,0.880141 -6.049798,0.329699 8.83108,0.273783 -1.94623,0.682606 -1.210675,0.04592 4.56802,-0.443901 -3.213269,-0.09061 -2.82856,0.128425 -5.310594,0.633019 -8.083581,1.6557 -1.332672,0.491491 -2.988083,1.403246 -4.300018,1.660298 -0.344035,0.06741 0.449887,-0.437749 0.32004,-0.541981 -0.115518,-0.09273 -0.802082,-0.04776 -0.619635,-0.171105 0.39089,-0.26427 1.593511,-0.487214 1.666495,-0.671524 0.06785,-0.171356 -1.040011,0.02415 -1.120128,-0.227274 -0.07429,-0.233122 4.657688,-1.656723 4.6686,-1.721385 0.0024,-0.01431 0.104066,-0.102927 -0.20885,-0.01059 -1.202063,0.3547 -4.45643,1.403864 -4.612287,1.49031 -2.247979,1.246835 -7.030608,3.633541 -6.766691,4.025321 0.138121,0.205037 1.639379,-0.659925 1.549459,-0.521877 -0.133677,0.205226 -1.088695,0.818549 -1.807514,1.26766 -1.151314,0.71933 -2.062554,1.676767 -2.596347,2.123716 -2.266353,1.897637 4.085924,-2.670033 3.774668,-1.828657 -0.07474,0.20202 -5.234968,3.363871 -7.39636,5.081861 -2.822925,2.243812 -3.990196,5.917046 -5.873047,8.830647 -0.874344,1.352996 -3.010132,4.728946 -1.341125,1.276909 0.890963,-1.852168 2.561831,-3.805691 3.017757,-5.601321 -1.417889,1.327219 -2.943986,3.942694 -4.090835,5.952273 -1.903044,3.334625 -3.456413,6.902425 -4.286664,10.660485 1.749921,-3.69002 -0.391221,3.55826 -0.25567,5.2426 0.206196,2.56217 0.446081,6.3785 0.176039,6.46433 -2.0519,0.6522 0.883787,6.37634 1.033193,9.33384 0.166206,3.29004 4.301573,10.67569 4.177063,10.68103 -0.368396,0.0158 -3.087403,-4.70483 -4.881348,-9.74312 -0.966786,-2.71521 -1.417544,-5.65701 -1.792092,-7.59012 0.439519,7.24744 3.441556,14.47712 8.2916,19.90932 6.820089,8.00338 17.211637,11.93031 27.376604,13.41391 5.565179,0.12098 11.229423,0.23813 16.453993,-2.00217 9.75982,-3.60943 17.26383,-12.12686 20.27729,-22.01391 3.1287,-9.57192 1.59358,-20.97861 -5.55995,-28.40466 -4.96964,-4.882533 -11.8927,-7.552704 -18.71214,-8.412161 -4.49442,-0.07264 -9.027387,-0.178545 -13.21995,1.848988 -6.81205,3.294323 -12.029969,9.962063 -13.071374,17.445803 -0.594643,4.27322 0.424179,9.62048 2.202429,12.44828 0.470192,0.74771 -2.574354,-6.94592 1.062002,-0.82303 0.50388,0.84843 1.656273,1.78851 1.759346,2.42878 0.0659,0.40936 0.731085,1.41372 1.527438,2.10153 0.293821,0.95918 6.521736,3.38494 2.520648,1.98188 -2.470646,-0.72696 -7.192373,-5.7215 -5.949411,-4.28052 2.071726,2.40177 4.626706,4.05237 7.572851,5.26653 2.784727,1.14763 9.305811,0.59228 8.302149,0.87722 -1.980666,0.56231 3.213452,0.14687 4.231822,-0.0395 3.26718,-1.20519 5.92835,-3.95511 7.30424,-7.10228 0.70985,-1.94109 1.16036,-3.75323 0.89935,-5.92352 -0.33561,-2.36194 -1.56606,-4.98745 -1.3551,-2.12003 0.1266,1.72092 -2.71381,-2.65999 -4.92807,-2.95143 -2.39281,0.0471 -2.81975,1.0528 -3.1947,2.44214 -0.12573,0.46589 -0.89595,0.86187 -1.29538,0.99981 -0.67069,0.23161 -1.377672,-0.27525 -1.22658,-0.28449 1.11557,-0.0683 1.73229,0.26434 2.15276,-1.66756 0.13783,-0.63331 0.56609,-1.17354 1.25821,-1.48241 3.07499,-1.37226 -1.0678,-0.38514 -1.44224,1.12088 -0.0831,0.79134 -0.48411,1.4999 -0.82174,1.55166 -1.242884,0.19054 -3.862887,-0.22878 -3.533301,-0.29914 2.997391,-0.63991 -3.36132,-0.85455 -4.475436,-0.90958 -3.014004,-0.14886 -3.133366,0.0825 -1.913085,-3.72521 2.076556,-5.7297 8.158043,-9.39386 14.263382,-9.20281 5.89212,0.18438 11.92407,3.06973 15.0449,8.01824 4.51069,7.15232 2.61044,16.61926 -1.65673,23.39943 -4.06705,6.4622 -12.18138,9.43737 -19.730866,9.32245 -8.434065,-0.12839 -16.784413,-3.66765 -22.607624,-9.59189 -5.074336,-5.16237 -7.616444,-12.62846 -7.166663,-19.91309 0.455736,-7.38108 3.104566,-14.63845 7.672215,-20.383328 4.416237,-5.554446 11.046764,-9.070741 18.036602,-10.43585 10.695366,-2.088795 21.770916,0.796803 31.204016,6.116455 2.25915,1.274013 4.26143,2.660203 5.97742,4.499817 3.91494,4.196979 7.53874,8.639796 9.39961,14.177806 3.00633,8.94695 2.47893,18.64281 -0.60782,27.43117 -2.42165,6.89474 -5.78942,13.74748 -11.88614,18.24609 -6.14416,4.53361 -14.17708,10.07996 -21.41879,10.39407 -0.47572,0.0206 -1.20715,-0.0351 -1.07806,-0.079 1.245,-0.42299 -3.85113,-0.3366 -1.98889,-0.25737 1.39476,0.0593 -3.12575,0.16361 -2.84968,0.17854 4.58262,0.24788 1.30618,0.82798 -1.29214,0.99246 -7.849979,0.49693 -15.710663,-1.31963 -23.14699,-3.7221 -2.701757,-0.87286 -5.204645,-2.31722 -7.611319,-3.82364 -1.838863,-1.15101 -8.185321,-5.97629 -5.169178,-3.9542 2.076189,1.39192 -2.057911,-2.3966 -2.932577,-3.19091 -6.143692,-5.57927 -10.720185,-12.71094 -12.742414,-20.88618 -0.784637,-3.17204 -2.2047,-5.99268 -2.05559,-9.32633 0.162775,-3.63916 0.01733,-7.24768 0.130858,-10.91677 0.04455,-1.43987 0.346869,-4.66817 0.888001,-6.93502 1.024071,-4.289922 5.044177,-14.103617 4.428793,-12.468177 -1.007742,2.67817 -4.957392,17.224597 -4.491458,17.377237 0.471604,0.1545 3.006224,-9.693831 4.276113,-14.621581 0.235332,-0.913195 2.313983,-5.026372 0.878448,-3.377372 -1.987764,2.388006 1.993951,-5.007561 0.591822,-0.742358 3.112831,-3.632506 4.784589,-8.868269 9.334857,-11.030491 0.772571,-2.185651 3.395077,-3.601494 4.894792,-5.484561 4.318656,-2.303949 8.131348,-5.970315 12.943665,-7.087142 2.150686,-0.832307 4.213812,-1.915297 6.635502,-1.606292 5.523775,-1.509546 11.262405,-2.639456 16.983185,-2.576716 3.33967,0.223206 6.91328,0.96617 10.16393,1.419767 2.33354,0.325621 -0.25233,1.111165 3.45949,1.146957 3.27007,0.351489 6.81293,0.808368 9.88907,2.025927 -0.0805,-0.132266 -2.80549,-1.585425 -6.07095,-2.399073 -2.55431,-0.636453 -6.22708,-0.497307 -6.18365,-0.64685 0.0273,-0.09407 3.14074,-0.09505 6.12379,0.506268 2.98113,0.600938 3.91065,1.158419 5.79606,1.926817 1.1439,0.466192 2.41802,1.321236 3.33188,1.62204 2.5805,1.147441 5.28307,1.379494 7.5925,3.100836 3.37531,2.51512 7.19099,4.662127 10.13914,7.632182 0.53085,1.120737 5.35081,4.46941 1.99446,2.603325 -3.29048,-2.019983 1.15302,2.193756 1.97558,3.135559 1.46172,1.881303 3.84166,3.425211 4.73129,5.516729 1.35591,3.222481 4.01078,6.025352 5.58561,9.295397 1.52558,3.167772 2.37913,6.392262 2.6284,9.947722 0.23976,3.41988 0.50428,6.95697 1.5726,10.37219 0.4388,1.40273 0.9596,16.33679 0.13901,17.3935 -0.77075,0.99253 -1.68253,6.19938 -3.3263,8.86323 -1.66239,2.69403 -1.96477,6.37653 -3.37606,9.15134 -0.42569,0.83698 -1.04868,1.3086 -1.44636,2.1508 -0.46395,0.98255 0.17702,0.94978 -0.34268,2.07525 -0.89015,1.92774 -3.24629,5.20149 -4.52168,6.84356 -4.03785,5.19874 -14.80711,14.39889 -14.40028,13.48036 0.45905,-1.03641 -3.54048,1.66754 -4.90007,2.24521 -2.70339,1.14863 -7.96921,4.11226 -8.12857,3.66105 -0.38166,-1.08058 -4.45206,1.08668 -6.39069,1.54444 -6.22938,1.47093 0.0881,-0.47957 -1.65528,-0.19026 -2.847,0.47246 -3.48998,0.74394 -5.25997,0.94537 -1.21682,0.13848 -3.57878,0.11042 -3.66964,0.17922 -0.0793,0.0601 -0.15609,2.11174 -0.20696,3.16915 -0.0696,1.44736 -0.18144,1.93194 -0.13438,4.34502 1.74316,-3.52751 1.38486,-3.94983 0.97886,1.20887 -0.28102,3.23913 -0.5557,6.38615 -0.18789,9.65361 0.26866,2.38668 0.35994,6.89593 0.0645,8.51218 -0.031,0.16972 -0.24934,0.0555 -0.38022,0.13289 -0.12764,0.0754 -0.16795,0.34411 -0.19513,0.36974 -0.29779,0.28084 -5.36859,0.52836 -9.819398,0.53328 z m -1.412563,-4.64155 c 0.242916,-7.05314 0.0346,-14.5575 0.104126,-21.78403 -0.870097,2.68933 -0.389748,6.00683 -0.64325,8.93982 0.03361,4.25317 0.138945,8.77053 0.539124,12.84421 z M 47.907087,125.80289 c 0.06879,-2.35358 -0.731311,-4.93406 -0.373945,-1.00642 0.113514,0.2115 0.279773,2.14608 0.373945,1.00642 z m 10.27597,-11.29381 c -0.07649,0.21088 -0.114886,8.08704 -0.04143,7.45735 0.166343,-1.42589 0.182929,-7.84744 0.04143,-7.45735 z m -10.818126,6.97228 c 0.35632,-1.21701 -0.781201,0.34354 0,0 z m 11.118495,-8.18004 c 0.173146,-3.58208 -0.431731,1.37001 0,0 z m 0.255749,-1.71475 c 0.119949,-3.4034 -0.419379,0.84981 0,0 z m 0.797604,-3.99815 c 0.641582,-1.54836 1.293905,-4.07549 2.180387,-6.30352 1.420936,-3.571308 2.974795,-6.664308 2.524312,-5.909098 -2.64695,4.437463 -4.875116,9.679358 -5.373889,14.934738 -0.09041,0.95264 0.417898,-2.11567 0.66919,-2.72212 z M 64.51875,95.111218 c 0.573588,-0.302903 -0.54751,-0.330038 0,0 z M 144.98304,92.9195 c 0.0961,-1.083471 -3.95293,-5.086294 -3.18992,-2.923757 1.04008,0.805031 2.15717,2.72851 3.18992,2.923757 z M 73.729357,83.875135 c -0.137562,-0.08617 -4.765753,4.860443 -4.580398,4.968097 0.185355,0.107654 4.684379,-4.902963 4.580398,-4.968097 z m 43.176893,-8.404402 c 1.28491,0.06756 -5.74828,-1.569855 -3.4591,-0.528897 1.04409,0.474777 2.30274,0.468093 3.4591,0.528897 z m -5.29167,-0.997016 c 0.57358,-0.302904 -0.54751,-0.330037 0,0 z m 29.69948,-0.0057 c -0.91216,-1.124351 -2.99629,-2.189504 -4.56411,-2.912237 1.49603,1.00377 3.02372,2.000407 4.56411,2.912237 z M 113.46667,64.101494 c 0.63954,-0.138951 -3.82435,-0.535673 -5.27313,-0.643131 -4.24626,-0.314951 4.31033,0.852315 5.27313,0.643131 z m -17.594795,-0.21111 c 1.170127,-0.246453 -1.113254,-0.267546 0,0 z m 3.768793,112.560096 c -0.03273,-0.0989 2.788372,-0.0659 1.929912,0.0302 -0.85846,0.0961 -1.897186,0.0687 -1.929912,-0.0302 z M 129.61336,170.196 c -5.1319,2.75138 6.59921,-4.39415 0,0 z m 29.07158,-11.84936 c 0.45463,-1.44971 2.05526,-3.26127 2.65539,-4.99735 1.66882,-3.34399 -0.0227,1.75054 -0.99923,2.54818 -0.5685,0.77336 -1.00152,1.83938 -1.65616,2.44917 z m -59.902648,-3.2966 c -6.501927,0.54221 -12.998663,-1.2863 -18.916829,-3.83181 -5.701262,-2.42269 -10.843634,-6.26412 -14.517084,-11.26013 -0.620735,-0.84422 3.141063,2.13612 4.405351,3.97828 2.025007,2.95058 5.736634,3.9349 8.580667,5.94366 4.627868,0.99664 9.071483,3.06223 13.816726,3.81155 8.089567,2.07427 16.965797,0.3897 23.846577,-4.31849 -0.0978,1.23952 3.08749,-1.98282 4.08663,-2.67921 1.21986,-1.21009 4.3381,-4.9945 2.03388,-1.42571 -4.65572,5.69249 -12.07952,8.67534 -19.22278,9.68793 l -4.113138,0.0939 z M 60.255385,152.2129 c 7.427873,6.53486 -5.268976,-5.70973 0,0 z m 21.593574,-1.81187 c -3.364181,-0.84483 1.092268,-0.55305 0,0 z m 81.386931,-1.65105 c -0.41533,0.0582 2.20239,-8.3033 0,0 z m -12.71593,-2.72495 c -0.0368,-1.25132 1.48654,-3.59599 0.69403,-1.29191 z m -26.18736,-3.95027 c -2.1725,2.40697 1.25815,-2.25124 1.8088,-3.26001 4.3191,-7.91247 5.61788,-13.85178 2.67235,-26.10874 -0.0398,-0.16551 1.97919,3.41102 0.46976,-0.54194 -1.71926,-4.78667 -2.72575,-5.38083 -0.15504,-2.18837 2.03592,2.52834 1.73912,5.86666 2.13222,8.90292 0.23498,1.81495 -0.22826,6.34681 0.16339,5.3652 0.98231,-2.46202 -0.38032,3.52065 -0.42326,4.82613 -0.66943,3.64779 -2.80098,10.12308 -6.37259,13.23586 -0.14949,0.13028 2.42275,-3.07241 2.26892,-3.1895 -0.14529,-0.11059 -1.2721,1.52651 -2.56455,2.95845 z m -24.46353,-8.1409 c -1.385523,0.0453 1.89291,-0.45032 0,0 z m 0.93045,-0.36323 c -0.0819,-0.14645 4.22735,-1.16968 5.42685,-2.15833 2.81195,-2.31766 0.54567,0.77947 -3.14384,1.75287 -0.65545,0.17293 -2.20407,0.54667 -2.28301,0.40546 z m 41.64753,-0.16523 c -1.55916,5.48985 1.25148,-5.91158 0,0 z m 12.462,-8.14251 c -0.35453,0.52463 -0.24683,-6.4471 0,0 z m -94.559142,-1.91131 c -0.320008,1.25483 0.01706,-6.95719 0.05079,-3.33913 z m 51.048412,-2.40361 c -1.19989,-1.049 0.20585,-2.04154 0,0 z m -30.343111,-1.89196 c -0.724513,1.44411 0.22289,-6.14579 0.210646,-2.796 -0.08722,0.92524 0.250336,1.94925 -0.210646,2.796 z m 0.345662,-5.15937 c -0.852681,1.89248 0.08813,-3.1306 0.407997,-4.17383 0.588198,-1.60989 2.071561,-5.08388 2.751549,-5.13437 -0.480919,1.15498 -3.347452,5.98903 -1.876998,4.68745 1.317941,-2.44519 2.117078,-5.2373 4.226545,-7.15321 -1.387955,2.92527 1.771156,-1.91355 3.033386,-2.38955 0.896295,-0.795449 8.458887,-5.538227 2.914988,-1.375178 -3.290628,3.612808 -7.402667,6.684928 -9.309393,11.364978 -0.564697,1.75247 -1.342196,3.11108 -2.148074,4.17371 z m 47.221309,-1.95537 c -0.33678,-0.11688 -1.53598,-3.87923 0,0 z m 25.1295,-0.27375 c -1.01403,-1.63994 -0.25596,-0.31733 0,0 z m -28.16082,-7.29232 c -0.0748,-0.0875 -1.82164,-0.97125 -2.73145,-1.45877 -1.46096,-0.78286 -3.00891,-1.79664 -4.37961,-2.35469 -8.41554,-3.426226 -1.60811,-1.54334 -2.47297,-2.073009 -5.00617,-3.065962 -15.06859,-2.144947 -15.1004,-2.683758 -0.0161,-0.272543 5.86827,-0.474366 8.68705,-0.108346 2.94288,0.446724 10.68054,3.273196 13.47173,6.653033 0.23105,0.27977 0.45964,0.23584 0.38026,0.13362 -1.28664,-1.65685 2.41666,2.20915 2.14539,1.89192 z m -13.81071,-6.413906 c -4.60957,-1.865607 5.2768,1.562802 0,0 z M 53.670834,88.232051 c -0.03095,-0.512848 0.747558,-1.018866 0,0 z M 136.0224,85.578172 c -1.48721,-0.509033 -3.02738,-1.454264 -4.77373,-2.564585 -3.42158,-2.034477 0.99813,-0.04095 2.39237,0.756345 0.524,0.586563 2.51486,1.107263 2.38136,1.80824 z m -1.83289,-16.660705 c -6.08841,-3.335848 3.36001,1.497548 0,0 z"
           id="path399" /></g></g></g></svg>
